<?xml version="1.0" encoding="UTF-8"?>
<svg xmlns="http://www.w3.org/2000/svg" xmlns:xlink="http://www.w3.org/1999/xlink" width="67.293" height="65.256" viewBox="0 0 67.293 65.256">
<defs>
<clipPath id="clip-0">
<path clip-rule="nonzero" d="M 0.03125 0 L 66.5625 0 L 66.5625 64.519531 L 0.03125 64.519531 Z M 0.03125 0 "/>
</clipPath>
<clipPath id="clip-1">
<path clip-rule="nonzero" d="M 0.03125 0 L 66.5625 0 L 66.5625 64.519531 L 0.03125 64.519531 Z M 0.03125 0 "/>
</clipPath>
<clipPath id="clip-2">
<path clip-rule="nonzero" d="M 0.03125 0 L 66.5625 0 L 66.5625 64.519531 L 0.03125 64.519531 Z M 0.03125 0 "/>
</clipPath>
<clipPath id="clip-3">
<path clip-rule="nonzero" d="M 0.03125 0 L 66.5625 0 L 66.5625 64.519531 L 0.03125 64.519531 Z M 0.03125 0 "/>
</clipPath>
<clipPath id="clip-4">
<path clip-rule="nonzero" d="M 0.03125 0 L 66.5625 0 L 66.5625 64.519531 L 0.03125 64.519531 Z M 0.03125 0 "/>
</clipPath>
<clipPath id="clip-5">
<path clip-rule="nonzero" d="M 0.03125 0 L 59 0 L 59 64.519531 L 0.03125 64.519531 Z M 0.03125 0 "/>
</clipPath>
<clipPath id="clip-6">
<path clip-rule="nonzero" d="M 0.03125 0 L 66.5625 0 L 66.5625 64.519531 L 0.03125 64.519531 Z M 0.03125 0 "/>
</clipPath>
</defs>
<path fill-rule="nonzero" fill="rgb(86.399841%, 7.998657%, 23.498535%)" fill-opacity="1" d="M 36.714844 32.261719 C 36.714844 28.855469 33.953125 26.09375 30.546875 26.09375 C 27.144531 26.09375 24.382812 28.855469 24.382812 32.261719 C 24.382812 35.664062 27.144531 38.425781 30.546875 38.425781 C 33.953125 38.425781 36.714844 35.664062 36.714844 32.261719 Z M 36.714844 32.261719 "/>
<g clip-path="url(#clip-0)">
<path fill="none" stroke-width="3.68622" stroke-linecap="butt" stroke-linejoin="miter" stroke="rgb(0%, 0%, 0%)" stroke-opacity="1" stroke-miterlimit="10" d="M 6.236327 -0.00154269 C 6.236327 3.443543 3.443121 6.236749 -0.0019646 6.236749 C -3.443099 6.236749 -6.236305 3.443543 -6.236305 -0.00154269 C -6.236305 -3.442677 -3.443099 -6.235883 -0.0019646 -6.235883 C 3.443121 -6.235883 6.236327 -3.442677 6.236327 -0.00154269 Z M 6.236327 -0.00154269 " transform="matrix(0.988727, 0, 0, -0.988727, 30.548817, 32.260193)"/>
</g>
<path fill-rule="nonzero" fill="rgb(13.198853%, 54.499817%, 13.198853%)" fill-opacity="1" d="M 64.742188 32.261719 C 64.742188 28.855469 61.980469 26.09375 58.574219 26.09375 C 55.171875 26.09375 52.410156 28.855469 52.410156 32.261719 C 52.410156 35.664062 55.171875 38.425781 58.574219 38.425781 C 61.980469 38.425781 64.742188 35.664062 64.742188 32.261719 Z M 64.742188 32.261719 "/>
<g clip-path="url(#clip-1)">
<path fill="none" stroke-width="3.68622" stroke-linecap="butt" stroke-linejoin="miter" stroke="rgb(0%, 0%, 0%)" stroke-opacity="1" stroke-miterlimit="10" d="M 34.583217 -0.00154269 C 34.583217 3.443543 31.790011 6.236749 28.344926 6.236749 C 24.903791 6.236749 22.110585 3.443543 22.110585 -0.00154269 C 22.110585 -3.442677 24.903791 -6.235883 28.344926 -6.235883 C 31.790011 -6.235883 34.583217 -3.442677 34.583217 -0.00154269 Z M 34.583217 -0.00154269 " transform="matrix(0.988727, 0, 0, -0.988727, 30.548817, 32.260193)"/>
</g>
<path fill-rule="nonzero" fill="rgb(11.599731%, 56.498718%, 100%)" fill-opacity="1" d="M 22.699219 7.988281 C 22.699219 4.582031 19.941406 1.820312 16.535156 1.820312 C 13.128906 1.820312 10.371094 4.582031 10.371094 7.988281 C 10.371094 11.394531 13.128906 14.152344 16.535156 14.152344 C 19.941406 14.152344 22.699219 11.394531 22.699219 7.988281 Z M 22.699219 7.988281 "/>
<g clip-path="url(#clip-2)">
<path fill="none" stroke-width="3.68622" stroke-linecap="butt" stroke-linejoin="miter" stroke="rgb(0%, 0%, 0%)" stroke-opacity="1" stroke-miterlimit="10" d="M -7.939094 24.548642 C -7.939094 27.993728 -10.728349 30.786934 -14.173434 30.786934 C -17.61852 30.786934 -20.407775 27.993728 -20.407775 24.548642 C -20.407775 21.103557 -17.61852 18.314302 -14.173434 18.314302 C -10.728349 18.314302 -7.939094 21.103557 -7.939094 24.548642 Z M -7.939094 24.548642 " transform="matrix(0.988727, 0, 0, -0.988727, 30.548817, 32.260193)"/>
</g>
<path fill-rule="nonzero" fill="rgb(100%, 64.7995%, 0%)" fill-opacity="1" d="M 22.699219 56.53125 C 22.699219 53.128906 19.941406 50.367188 16.535156 50.367188 C 13.128906 50.367188 10.371094 53.128906 10.371094 56.53125 C 10.371094 59.9375 13.128906 62.699219 16.535156 62.699219 C 19.941406 62.699219 22.699219 59.9375 22.699219 56.53125 Z M 22.699219 56.53125 "/>
<g clip-path="url(#clip-3)">
<path fill="none" stroke-width="3.68622" stroke-linecap="butt" stroke-linejoin="miter" stroke="rgb(0%, 0%, 0%)" stroke-opacity="1" stroke-miterlimit="10" d="M -7.939094 -24.547777 C -7.939094 -21.106642 -10.728349 -18.313436 -14.173434 -18.313436 C -17.61852 -18.313436 -20.407775 -21.106642 -20.407775 -24.547777 C -20.407775 -27.992862 -17.61852 -30.786068 -14.173434 -30.786068 C -10.728349 -30.786068 -7.939094 -27.992862 -7.939094 -24.547777 Z M -7.939094 -24.547777 " transform="matrix(0.988727, 0, 0, -0.988727, 30.548817, 32.260193)"/>
</g>
<path fill="none" stroke-width="3.68622" stroke-linecap="butt" stroke-linejoin="miter" stroke="rgb(0%, 0%, 0%)" stroke-opacity="1" stroke-miterlimit="10" d="M 5.667414 -0.00154269 L 22.675548 -0.00154269 " transform="matrix(0.988727, 0, 0, -0.988727, 30.548817, 32.260193)"/>
<g clip-path="url(#clip-4)">
<path fill="none" stroke-width="3.68622" stroke-linecap="butt" stroke-linejoin="miter" stroke="rgb(0%, 0%, 0%)" stroke-opacity="1" stroke-miterlimit="10" d="M -2.834678 4.909284 L -11.340721 19.637815 " transform="matrix(0.988727, 0, 0, -0.988727, 30.548817, 32.260193)"/>
<path fill="none" stroke-width="3.68622" stroke-linecap="butt" stroke-linejoin="miter" stroke="rgb(0%, 0%, 0%)" stroke-opacity="1" stroke-miterlimit="10" d="M -2.834678 -4.908419 L -11.340721 -19.640901 " transform="matrix(0.988727, 0, 0, -0.988727, 30.548817, 32.260193)"/>
<path fill="none" stroke-width="3.68622" stroke-linecap="butt" stroke-linejoin="miter" stroke="rgb(0%, 0%, 0%)" stroke-opacity="1" stroke-miterlimit="10" d="M 20.431501 15.284049 C 16.25552 20.86651 9.942164 24.509134 3.020387 25.334849 " transform="matrix(0.988727, 0, 0, -0.988727, 30.548817, 32.260193)"/>
</g>
<path fill-rule="nonzero" fill="rgb(0%, 0%, 0%)" fill-opacity="1" stroke-width="2.0569" stroke-linecap="butt" stroke-linejoin="round" stroke="rgb(0%, 0%, 0%)" stroke-opacity="1" stroke-miterlimit="10" d="M 23.248412 10.503598 C 23.382739 13.249394 23.193101 16.105812 22.683449 19.013591 C 22.086881 17.591308 21.438952 16.208533 20.735712 14.869216 C 19.266019 14.568957 17.827933 14.201533 16.425404 13.766947 C 18.720811 13.000494 21.012267 11.906127 23.248412 10.503598 Z M 23.248412 10.503598 " transform="matrix(0.988727, 0, 0, -0.988727, 30.548817, 32.260193)"/>
<path fill-rule="nonzero" fill="rgb(0%, 0%, 0%)" fill-opacity="1" stroke-width="2.0569" stroke-linecap="butt" stroke-linejoin="round" stroke="rgb(0%, 0%, 0%)" stroke-opacity="1" stroke-miterlimit="10" d="M -2.530468 25.386209 C -0.195553 24.153564 1.898364 22.711527 3.707824 21.107508 C 3.379908 22.541643 2.980879 23.967877 2.510735 25.39016 C 3.316696 26.670215 4.189819 27.922614 5.122205 29.151308 C 2.348753 28.139907 -0.219258 26.871705 -2.530468 25.386209 Z M -2.530468 25.386209 " transform="matrix(0.988727, 0, 0, -0.988727, 30.548817, 32.260193)"/>
<g clip-path="url(#clip-5)">
<path fill="none" stroke-width="3.68622" stroke-linecap="butt" stroke-linejoin="miter" stroke="rgb(0%, 0%, 0%)" stroke-opacity="1" stroke-miterlimit="10" d="M -23.44988 10.053208 C -26.199627 3.641082 -26.199627 -3.644168 -23.44988 -10.052343 " transform="matrix(0.988727, 0, 0, -0.988727, 30.548817, 32.260193)"/>
</g>
<path fill-rule="nonzero" fill="rgb(0%, 0%, 0%)" fill-opacity="1" stroke-width="2.0569" stroke-linecap="butt" stroke-linejoin="round" stroke="rgb(0%, 0%, 0%)" stroke-opacity="1" stroke-miterlimit="10" d="M -20.719887 14.885019 C -23.165424 13.624719 -25.543797 12.032552 -27.807597 10.136175 C -26.278643 10.329763 -24.757591 10.460139 -23.244439 10.523352 C -22.248841 9.401328 -21.213735 8.338567 -20.135171 7.339018 C -20.621117 9.71344 -20.818657 12.245894 -20.719887 14.885019 Z M -20.719887 14.885019 " transform="matrix(0.988727, 0, 0, -0.988727, 30.548817, 32.260193)"/>
<path fill-rule="nonzero" fill="rgb(0%, 0%, 0%)" fill-opacity="1" stroke-width="2.0569" stroke-linecap="butt" stroke-linejoin="round" stroke="rgb(0%, 0%, 0%)" stroke-opacity="1" stroke-miterlimit="10" d="M -20.719887 -14.884154 C -20.818657 -12.245029 -20.617167 -9.712575 -20.135171 -7.342103 C -21.209785 -8.341652 -22.248841 -9.404414 -23.244439 -10.522486 C -24.75364 -10.463224 -26.278643 -10.332848 -27.807597 -10.13926 C -25.543797 -12.035637 -23.165424 -13.623853 -20.719887 -14.884154 Z M -20.719887 -14.884154 " transform="matrix(0.988727, 0, 0, -0.988727, 30.548817, 32.260193)"/>
<g clip-path="url(#clip-6)">
<path fill="none" stroke-width="3.68622" stroke-linecap="butt" stroke-linejoin="miter" stroke="rgb(0%, 0%, 0%)" stroke-opacity="1" stroke-miterlimit="10" d="M 3.020387 -25.333983 C 9.946115 -24.508269 16.25552 -20.865644 20.431501 -15.283183 " transform="matrix(0.988727, 0, 0, -0.988727, 30.548817, 32.260193)"/>
</g>
<path fill-rule="nonzero" fill="rgb(0%, 0%, 0%)" fill-opacity="1" stroke-width="2.0569" stroke-linecap="butt" stroke-linejoin="round" stroke="rgb(0%, 0%, 0%)" stroke-opacity="1" stroke-miterlimit="10" d="M -2.530468 -25.385344 C -0.219258 -26.87479 2.348753 -28.139042 5.126156 -29.150443 C 4.189819 -27.921748 3.316696 -26.669349 2.510735 -25.389294 C 2.980879 -23.967011 3.383859 -22.540778 3.711774 -21.106642 C 1.898364 -22.714612 -0.195553 -24.152698 -2.530468 -25.385344 Z M -2.530468 -25.385344 " transform="matrix(0.988727, 0, 0, -0.988727, 30.548817, 32.260193)"/>
<path fill-rule="nonzero" fill="rgb(0%, 0%, 0%)" fill-opacity="1" stroke-width="2.0569" stroke-linecap="butt" stroke-linejoin="round" stroke="rgb(0%, 0%, 0%)" stroke-opacity="1" stroke-miterlimit="10" d="M 23.248412 -10.502732 C 21.012267 -11.905261 18.720811 -12.999629 16.425404 -13.766082 C 17.831884 -14.196717 19.266019 -14.56414 20.735712 -14.868351 C 21.438952 -16.207667 22.086881 -17.590443 22.683449 -19.008775 C 23.193101 -16.104947 23.382739 -13.248529 23.248412 -10.502732 Z M 23.248412 -10.502732 " transform="matrix(0.988727, 0, 0, -0.988727, 30.548817, 32.260193)"/>
</svg>
