<?xml version="1.0" encoding="UTF-8"?>
<svg xmlns="http://www.w3.org/2000/svg" xmlns:xlink="http://www.w3.org/1999/xlink" width="67.6" height="65.256" viewBox="0 0 67.6 65.256">
<defs>
<clipPath id="clip-0">
<path clip-rule="nonzero" d="M 0.183594 0 L 67.019531 0 L 67.019531 64.519531 L 0.183594 64.519531 Z M 0.183594 0 "/>
</clipPath>
<clipPath id="clip-1">
<path clip-rule="nonzero" d="M 1 0 L 67.019531 0 L 67.019531 64.519531 L 1 64.519531 Z M 1 0 "/>
</clipPath>
<clipPath id="clip-2">
<path clip-rule="nonzero" d="M 0.183594 0 L 67.019531 0 L 67.019531 64.519531 L 0.183594 64.519531 Z M 0.183594 0 "/>
</clipPath>
<clipPath id="clip-3">
<path clip-rule="nonzero" d="M 0.183594 0 L 67.019531 0 L 67.019531 64.519531 L 0.183594 64.519531 Z M 0.183594 0 "/>
</clipPath>
<clipPath id="clip-4">
<path clip-rule="nonzero" d="M 17 0 L 67.019531 0 L 67.019531 50 L 17 50 Z M 17 0 "/>
</clipPath>
<clipPath id="clip-5">
<path clip-rule="nonzero" d="M 0.183594 0 L 66 0 L 66 41 L 0.183594 41 Z M 0.183594 0 "/>
</clipPath>
<clipPath id="clip-6">
<path clip-rule="nonzero" d="M 0.183594 0 L 59 0 L 59 64.519531 L 0.183594 64.519531 Z M 0.183594 0 "/>
</clipPath>
<clipPath id="clip-7">
<path clip-rule="nonzero" d="M 0.183594 0 L 40 0 L 40 55 L 0.183594 55 Z M 0.183594 0 "/>
</clipPath>
<clipPath id="clip-8">
<path clip-rule="nonzero" d="M 0.183594 9 L 40 9 L 40 64.519531 L 0.183594 64.519531 Z M 0.183594 9 "/>
</clipPath>
<clipPath id="clip-9">
<path clip-rule="nonzero" d="M 0.183594 0 L 67.019531 0 L 67.019531 64.519531 L 0.183594 64.519531 Z M 0.183594 0 "/>
</clipPath>
<clipPath id="clip-10">
<path clip-rule="nonzero" d="M 0.183594 24 L 66 24 L 66 64.519531 L 0.183594 64.519531 Z M 0.183594 24 "/>
</clipPath>
<clipPath id="clip-11">
<path clip-rule="nonzero" d="M 17 14 L 67.019531 14 L 67.019531 64.519531 L 17 64.519531 Z M 17 14 "/>
</clipPath>
</defs>
<g clip-path="url(#clip-0)">
<path fill="none" stroke-width="3.68622" stroke-linecap="butt" stroke-linejoin="miter" stroke="rgb(0%, 0%, 0%)" stroke-opacity="1" stroke-miterlimit="10" d="M 6.236319 -0.00154269 C 6.236319 3.443543 3.443113 6.236749 -0.00197272 6.236749 C -3.443107 6.236749 -6.236313 3.443543 -6.236313 -0.00154269 C -6.236313 -3.442677 -3.443107 -6.235883 -0.00197272 -6.235883 C 3.443113 -6.235883 6.236319 -3.442677 6.236319 -0.00154269 Z M 6.236319 -0.00154269 " transform="matrix(0.988727, 0, 0, -0.988727, 31.005857, 32.260193)"/>
</g>
<g clip-path="url(#clip-1)">
<path fill="none" stroke-width="3.68622" stroke-linecap="butt" stroke-linejoin="miter" stroke="rgb(0%, 0%, 0%)" stroke-opacity="1" stroke-miterlimit="10" d="M 34.583209 -0.00154269 C 34.583209 3.443543 31.790003 6.236749 28.344918 6.236749 C 24.903783 6.236749 22.110577 3.443543 22.110577 -0.00154269 C 22.110577 -3.442677 24.903783 -6.235883 28.344918 -6.235883 C 31.790003 -6.235883 34.583209 -3.442677 34.583209 -0.00154269 Z M 34.583209 -0.00154269 " transform="matrix(0.988727, 0, 0, -0.988727, 31.005857, 32.260193)"/>
</g>
<g clip-path="url(#clip-2)">
<path fill="none" stroke-width="3.68622" stroke-linecap="butt" stroke-linejoin="miter" stroke="rgb(0%, 0%, 0%)" stroke-opacity="1" stroke-miterlimit="10" d="M -7.935151 24.548642 C -7.935151 27.993728 -10.728357 30.786934 -14.173443 30.786934 C -17.618528 30.786934 -20.407783 27.993728 -20.407783 24.548642 C -20.407783 21.103557 -17.618528 18.314302 -14.173443 18.314302 C -10.728357 18.314302 -7.935151 21.103557 -7.935151 24.548642 Z M -7.935151 24.548642 " transform="matrix(0.988727, 0, 0, -0.988727, 31.005857, 32.260193)"/>
<path fill="none" stroke-width="3.68622" stroke-linecap="butt" stroke-linejoin="miter" stroke="rgb(0%, 0%, 0%)" stroke-opacity="1" stroke-miterlimit="10" d="M -7.935151 -24.547777 C -7.935151 -21.106642 -10.728357 -18.313436 -14.173443 -18.313436 C -17.618528 -18.313436 -20.407783 -21.106642 -20.407783 -24.547777 C -20.407783 -27.992862 -17.618528 -30.786068 -14.173443 -30.786068 C -10.728357 -30.786068 -7.935151 -27.992862 -7.935151 -24.547777 Z M -7.935151 -24.547777 " transform="matrix(0.988727, 0, 0, -0.988727, 31.005857, 32.260193)"/>
</g>
<path fill="none" stroke-width="3.68622" stroke-linecap="butt" stroke-linejoin="miter" stroke="rgb(0%, 0%, 0%)" stroke-opacity="1" stroke-miterlimit="10" d="M 5.667405 -0.00154269 L 22.67554 -0.00154269 " transform="matrix(0.988727, 0, 0, -0.988727, 31.005857, 32.260193)"/>
<g clip-path="url(#clip-3)">
<path fill="none" stroke-width="3.68622" stroke-linecap="butt" stroke-linejoin="miter" stroke="rgb(0%, 0%, 0%)" stroke-opacity="1" stroke-miterlimit="10" d="M -2.834686 4.909284 L -11.340729 19.637815 " transform="matrix(0.988727, 0, 0, -0.988727, 31.005857, 32.260193)"/>
<path fill="none" stroke-width="3.68622" stroke-linecap="butt" stroke-linejoin="miter" stroke="rgb(0%, 0%, 0%)" stroke-opacity="1" stroke-miterlimit="10" d="M -2.834686 -4.908419 L -11.340729 -19.640901 " transform="matrix(0.988727, 0, 0, -0.988727, 31.005857, 32.260193)"/>
<path fill="none" stroke-width="3.68622" stroke-linecap="butt" stroke-linejoin="miter" stroke="rgb(0%, 0%, 0%)" stroke-opacity="1" stroke-miterlimit="10" d="M 19.799367 16.090009 C 15.848581 20.953427 10.218711 24.204924 4.03178 25.19262 " transform="matrix(0.988727, 0, 0, -0.988727, 31.005857, 32.260193)"/>
</g>
<path fill-rule="nonzero" fill="rgb(0%, 0%, 0%)" fill-opacity="1" d="M 53.558594 20.957031 C 53.578125 18.238281 53.277344 15.425781 52.667969 12.585938 C 52.132812 14.011719 51.542969 15.398438 50.898438 16.746094 C 49.460938 17.105469 48.058594 17.527344 46.695312 18.015625 C 48.984375 18.671875 51.289062 19.65625 53.558594 20.957031 Z M 53.558594 20.957031 "/>
<g clip-path="url(#clip-4)">
<path fill="none" stroke-width="2.0569" stroke-linecap="butt" stroke-linejoin="miter" stroke="rgb(0%, 0%, 0%)" stroke-opacity="1" stroke-miterlimit="10" d="M 22.809866 11.432032 C 22.82962 14.18178 22.52541 17.026346 21.909087 19.898567 C 21.367829 18.45653 20.771261 17.054001 20.119381 15.69098 C 18.665492 15.327508 17.24716 14.900823 15.868335 14.406974 C 18.183496 13.743242 20.51446 12.747644 22.809866 11.432032 Z M 22.809866 11.432032 " transform="matrix(0.988727, 0, 0, -0.988727, 31.005857, 32.260193)"/>
</g>
<path fill-rule="nonzero" fill="rgb(0%, 0%, 0%)" fill-opacity="1" d="M 29.519531 7.078125 C 31.777344 8.390625 33.78125 9.894531 35.492188 11.550781 C 35.230469 10.125 34.898438 8.699219 34.492188 7.277344 C 35.339844 6.042969 36.242188 4.835938 37.203125 3.660156 C 34.445312 4.554688 31.863281 5.703125 29.519531 7.078125 Z M 29.519531 7.078125 "/>
<g clip-path="url(#clip-5)">
<path fill="none" stroke-width="2.0569" stroke-linecap="butt" stroke-linejoin="miter" stroke="rgb(0%, 0%, 0%)" stroke-opacity="1" stroke-miterlimit="10" d="M -1.503271 25.469176 C 0.780283 24.141711 2.807036 22.620659 4.537481 20.945525 C 4.272778 22.387562 3.936961 23.829599 3.526079 25.267685 C 4.3834 26.516134 5.296031 27.736927 6.267925 28.926113 C 3.47867 28.021383 0.8672 26.859852 -1.503271 25.469176 Z M -1.503271 25.469176 " transform="matrix(0.988727, 0, 0, -0.988727, 31.005857, 32.260193)"/>
</g>
<g clip-path="url(#clip-6)">
<path fill="none" stroke-width="3.68622" stroke-linecap="butt" stroke-linejoin="miter" stroke="rgb(0%, 0%, 0%)" stroke-opacity="1" stroke-miterlimit="10" d="M -23.837065 9.101069 C -26.06926 3.246004 -26.06926 -3.249089 -23.833115 -9.104154 " transform="matrix(0.988727, 0, 0, -0.988727, 31.005857, 32.260193)"/>
</g>
<path fill-rule="nonzero" fill="rgb(0%, 0%, 0%)" fill-opacity="1" d="M 9.941406 18.382812 C 7.578125 19.722656 5.292969 21.386719 3.136719 23.335938 C 4.636719 23.089844 6.132812 22.90625 7.625 22.789062 C 8.652344 23.855469 9.722656 24.855469 10.824219 25.796875 C 10.25 23.484375 9.949219 20.996094 9.941406 18.382812 Z M 9.941406 18.382812 "/>
<g clip-path="url(#clip-7)">
<path fill="none" stroke-width="2.0569" stroke-linecap="butt" stroke-linejoin="miter" stroke="rgb(0%, 0%, 0%)" stroke-opacity="1" stroke-miterlimit="10" d="M -21.304612 14.0356 C -23.694837 12.680481 -26.006047 10.997446 -28.186881 9.026004 C -26.669779 9.274903 -25.156628 9.46059 -23.647428 9.579114 C -22.608371 8.500549 -21.525856 7.489148 -20.411734 6.537008 C -20.992499 8.875874 -21.29671 11.392525 -21.304612 14.0356 Z M -21.304612 14.0356 " transform="matrix(0.988727, 0, 0, -0.988727, 31.005857, 32.260193)"/>
</g>
<path fill-rule="nonzero" fill="rgb(0%, 0%, 0%)" fill-opacity="1" d="M 9.941406 46.136719 C 9.949219 43.527344 10.25 41.035156 10.828125 38.730469 C 9.722656 39.667969 8.652344 40.667969 7.625 41.734375 C 6.136719 41.617188 4.640625 41.4375 3.140625 41.191406 C 5.292969 43.132812 7.578125 44.796875 9.941406 46.136719 Z M 9.941406 46.136719 "/>
<g clip-path="url(#clip-8)">
<path fill="none" stroke-width="2.0569" stroke-linecap="butt" stroke-linejoin="miter" stroke="rgb(0%, 0%, 0%)" stroke-opacity="1" stroke-miterlimit="10" d="M -21.304612 -14.034735 C -21.29671 -11.39561 -20.992499 -8.875008 -20.407783 -6.544045 C -21.525856 -7.492233 -22.608371 -8.503634 -23.647428 -9.582199 C -25.152677 -9.463675 -26.665828 -9.281939 -28.18293 -9.03304 C -26.006047 -10.99658 -23.694837 -12.679615 -21.304612 -14.034735 Z M -21.304612 -14.034735 " transform="matrix(0.988727, 0, 0, -0.988727, 31.005857, 32.260193)"/>
</g>
<g clip-path="url(#clip-9)">
<path fill="none" stroke-width="3.68622" stroke-linecap="butt" stroke-linejoin="miter" stroke="rgb(0%, 0%, 0%)" stroke-opacity="1" stroke-miterlimit="10" d="M 4.035731 -25.191755 C 10.222662 -24.200108 15.848581 -20.952562 19.803318 -16.089144 " transform="matrix(0.988727, 0, 0, -0.988727, 31.005857, 32.260193)"/>
</g>
<path fill-rule="nonzero" fill="rgb(0%, 0%, 0%)" fill-opacity="1" d="M 29.519531 57.441406 C 31.863281 58.816406 34.449219 59.964844 37.210938 60.859375 C 36.246094 59.679688 35.34375 58.476562 34.496094 57.246094 C 34.902344 55.820312 35.238281 54.394531 35.5 52.96875 C 33.785156 54.625 31.777344 56.128906 29.519531 57.441406 Z M 29.519531 57.441406 "/>
<g clip-path="url(#clip-10)">
<path fill="none" stroke-width="2.0569" stroke-linecap="butt" stroke-linejoin="miter" stroke="rgb(0%, 0%, 0%)" stroke-opacity="1" stroke-miterlimit="10" d="M -1.503271 -25.46831 C 0.8672 -26.858987 3.482621 -28.020518 6.275826 -28.925248 C 5.299982 -27.732111 4.387351 -26.515268 3.53003 -25.270771 C 3.940912 -23.828734 4.280679 -22.386697 4.545382 -20.94466 C 2.810987 -22.619793 0.780283 -24.140846 -1.503271 -25.46831 Z M -1.503271 -25.46831 " transform="matrix(0.988727, 0, 0, -0.988727, 31.005857, 32.260193)"/>
</g>
<path fill-rule="nonzero" fill="rgb(0%, 0%, 0%)" fill-opacity="1" d="M 53.558594 43.5625 C 51.289062 44.863281 48.984375 45.847656 46.699219 46.5 C 48.0625 46.988281 49.464844 47.414062 50.898438 47.773438 C 51.542969 49.121094 52.136719 50.503906 52.675781 51.929688 C 53.28125 49.09375 53.578125 46.28125 53.558594 43.5625 Z M 53.558594 43.5625 "/>
<g clip-path="url(#clip-11)">
<path fill="none" stroke-width="2.0569" stroke-linecap="butt" stroke-linejoin="miter" stroke="rgb(0%, 0%, 0%)" stroke-opacity="1" stroke-miterlimit="10" d="M 22.809866 -11.431167 C 20.51446 -12.746779 18.183496 -13.742377 15.872286 -14.402158 C 17.25111 -14.896006 18.669443 -15.326642 20.119381 -15.690114 C 20.771261 -17.053136 21.37178 -18.451714 21.916989 -19.893751 C 22.529361 -17.02548 22.82962 -14.180914 22.809866 -11.431167 Z M 22.809866 -11.431167 " transform="matrix(0.988727, 0, 0, -0.988727, 31.005857, 32.260193)"/>
</g>
</svg>
