<?xml version="1.0" encoding="UTF-8"?>
<svg xmlns="http://www.w3.org/2000/svg" xmlns:xlink="http://www.w3.org/1999/xlink" width="74.195pt" height="74.195pt" viewBox="0 0 74.195 74.195">
<defs>
<clipPath id="clip-0">
<path clip-rule="nonzero" d="M 0 0 L 73.398438 0 L 73.398438 73.398438 L 0 73.398438 Z M 0 0 "/>
</clipPath>
<clipPath id="clip-1">
<path clip-rule="nonzero" d="M 0 0 L 73.398438 0 L 73.398438 73.398438 L 0 73.398438 Z M 0 0 "/>
</clipPath>
<clipPath id="clip-2">
<path clip-rule="nonzero" d="M 15 0 L 73.398438 0 L 73.398438 73.398438 L 15 73.398438 Z M 15 0 "/>
</clipPath>
<clipPath id="clip-3">
<path clip-rule="nonzero" d="M 0 11 L 72 11 L 72 73.398438 L 0 73.398438 Z M 0 11 "/>
</clipPath>
<clipPath id="clip-4">
<path clip-rule="nonzero" d="M 0 0 L 73.398438 0 L 73.398438 73.398438 L 0 73.398438 Z M 0 0 "/>
</clipPath>
<clipPath id="clip-5">
<path clip-rule="nonzero" d="M 0 0 L 69 0 L 69 73.398438 L 0 73.398438 Z M 0 0 "/>
</clipPath>
<clipPath id="clip-6">
<path clip-rule="nonzero" d="M 0 0 L 73.398438 0 L 73.398438 73.398438 L 0 73.398438 Z M 0 0 "/>
</clipPath>
</defs>
<path fill="none" stroke-width="4.48325" stroke-linecap="butt" stroke-linejoin="miter" stroke="rgb(0%, 0%, 0%)" stroke-opacity="1" stroke-miterlimit="10" d="M 5.669633 -0.000397483 L 22.676391 -0.000397483 " transform="matrix(0.989267, 0, 0, -0.989267, 36.699815, 36.698826)"/>
<g clip-path="url(#clip-0)">
<path fill="none" stroke-width="4.48325" stroke-linecap="butt" stroke-linejoin="miter" stroke="rgb(0%, 0%, 0%)" stroke-opacity="1" stroke-miterlimit="10" d="M -2.83572 4.907752 L -11.337125 19.640098 " transform="matrix(0.989267, 0, 0, -0.989267, 36.699815, 36.698826)"/>
<path fill="none" stroke-width="4.48325" stroke-linecap="butt" stroke-linejoin="miter" stroke="rgb(0%, 0%, 0%)" stroke-opacity="1" stroke-miterlimit="10" d="M -2.83572 -4.908547 L -11.337125 -19.640893 " transform="matrix(0.989267, 0, 0, -0.989267, 36.699815, 36.698826)"/>
</g>
<path fill-rule="nonzero" fill="rgb(86.399841%, 7.998657%, 23.498535%)" fill-opacity="1" d="M 43.878906 36.699219 C 43.878906 32.734375 40.664062 29.519531 36.699219 29.519531 C 32.734375 29.519531 29.519531 32.734375 29.519531 36.699219 C 29.519531 40.664062 32.734375 43.878906 36.699219 43.878906 C 40.664062 43.878906 43.878906 40.664062 43.878906 36.699219 Z M 43.878906 36.699219 "/>
<g clip-path="url(#clip-1)">
<path fill="none" stroke-width="2.98883" stroke-linecap="butt" stroke-linejoin="miter" stroke="rgb(0%, 0%, 0%)" stroke-opacity="1" stroke-miterlimit="10" d="M 7.256983 -0.000397483 C 7.256983 4.007464 4.007259 7.257188 -0.000602517 7.257188 C -4.008464 7.257188 -7.258188 4.007464 -7.258188 -0.000397483 C -7.258188 -4.008259 -4.008464 -7.257983 -0.000602517 -7.257983 C 4.007259 -7.257983 7.256983 -4.008259 7.256983 -0.000397483 Z M 7.256983 -0.000397483 " transform="matrix(0.989267, 0, 0, -0.989267, 36.699815, 36.698826)"/>
</g>
<path fill-rule="nonzero" fill="rgb(13.198853%, 54.499817%, 13.198853%)" fill-opacity="1" d="M 71.921875 36.699219 C 71.921875 32.734375 68.707031 29.519531 64.742188 29.519531 C 60.777344 29.519531 57.5625 32.734375 57.5625 36.699219 C 57.5625 40.664062 60.777344 43.878906 64.742188 43.878906 C 68.707031 43.878906 71.921875 40.664062 71.921875 36.699219 Z M 71.921875 36.699219 "/>
<g clip-path="url(#clip-2)">
<path fill="none" stroke-width="2.98883" stroke-linecap="butt" stroke-linejoin="miter" stroke="rgb(0%, 0%, 0%)" stroke-opacity="1" stroke-miterlimit="10" d="M 35.604212 -0.000397483 C 35.604212 4.007464 32.354488 7.257188 28.346626 7.257188 C 24.338765 7.257188 21.089041 4.007464 21.089041 -0.000397483 C 21.089041 -4.008259 24.338765 -7.257983 28.346626 -7.257983 C 32.354488 -7.257983 35.604212 -4.008259 35.604212 -0.000397483 Z M 35.604212 -0.000397483 " transform="matrix(0.989267, 0, 0, -0.989267, 36.699815, 36.698826)"/>
</g>
<path fill-rule="nonzero" fill="rgb(11.599731%, 56.498718%, 100%)" fill-opacity="1" stroke-width="2.98883" stroke-linecap="butt" stroke-linejoin="miter" stroke="rgb(0%, 0%, 0%)" stroke-opacity="1" stroke-miterlimit="10" d="M -6.914657 24.548248 C -6.914657 28.556109 -10.164381 31.805833 -14.172243 31.805833 C -18.180104 31.805833 -21.429828 28.556109 -21.429828 24.548248 C -21.429828 20.540386 -18.180104 17.290662 -14.172243 17.290662 C -10.164381 17.290662 -6.914657 20.540386 -6.914657 24.548248 Z M -6.914657 24.548248 " transform="matrix(0.989267, 0, 0, -0.989267, 36.699815, 36.698826)"/>
<path fill-rule="nonzero" fill="rgb(100%, 84.399414%, 0%)" fill-opacity="1" d="M 29.859375 60.984375 C 29.859375 57.019531 26.644531 53.804688 22.679688 53.804688 C 18.714844 53.804688 15.5 57.019531 15.5 60.984375 C 15.5 64.949219 18.714844 68.164062 22.679688 68.164062 C 26.644531 68.164062 29.859375 64.949219 29.859375 60.984375 Z M 29.859375 60.984375 "/>
<g clip-path="url(#clip-3)">
<path fill="none" stroke-width="2.98883" stroke-linecap="butt" stroke-linejoin="miter" stroke="rgb(0%, 0%, 0%)" stroke-opacity="1" stroke-miterlimit="10" d="M -6.914657 -24.549043 C -6.914657 -20.541181 -10.164381 -17.291457 -14.172243 -17.291457 C -18.180104 -17.291457 -21.429828 -20.541181 -21.429828 -24.549043 C -21.429828 -28.556904 -18.180104 -31.806628 -14.172243 -31.806628 C -10.164381 -31.806628 -6.914657 -28.556904 -6.914657 -24.549043 Z M -6.914657 -24.549043 " transform="matrix(0.989267, 0, 0, -0.989267, 36.699815, 36.698826)"/>
</g>
<g clip-path="url(#clip-4)">
<path fill="none" stroke-width="3.9851" stroke-linecap="butt" stroke-linejoin="miter" stroke="rgb(0%, 0%, 0%)" stroke-opacity="1" stroke-miterlimit="10" d="M 19.276619 16.71811 C 15.533316 21.030016 10.43958 23.971747 4.832523 25.053672 " transform="matrix(0.989267, 0, 0, -0.989267, 36.699815, 36.698826)"/>
</g>
<path fill-rule="nonzero" fill="rgb(0%, 0%, 0%)" fill-opacity="1" stroke-width="2.5172" stroke-linecap="butt" stroke-linejoin="round" stroke="rgb(0%, 0%, 0%)" stroke-opacity="1" stroke-miterlimit="10" d="M 23.154175 10.712241 C 23.54509 14.305496 23.398991 18.111977 22.711929 22.009277 C 21.787949 20.019167 20.77315 18.100132 19.675431 16.244274 C 17.701115 15.422959 15.786028 14.506876 13.938068 13.499975 C 16.954823 13.124855 20.062397 12.192978 23.154175 10.712241 Z M 23.154175 10.712241 " transform="matrix(0.989267, 0, 0, -0.989267, 36.699815, 36.698826)"/>
<path fill-rule="nonzero" fill="rgb(0%, 0%, 0%)" fill-opacity="1" stroke-width="2.5172" stroke-linecap="butt" stroke-linejoin="round" stroke="rgb(0%, 0%, 0%)" stroke-opacity="1" stroke-miterlimit="10" d="M -2.298706 25.409049 C 0.528514 23.470271 2.885847 21.243243 4.718013 18.818783 C 4.662732 20.927352 4.500838 23.03987 4.224434 25.160286 C 5.282667 27.039834 6.439616 28.879897 7.695281 30.676524 C 3.983567 29.318195 0.615384 27.545259 -2.298706 25.409049 Z M -2.298706 25.409049 " transform="matrix(0.989267, 0, 0, -0.989267, 36.699815, 36.698826)"/>
<g clip-path="url(#clip-5)">
<path fill="none" stroke-width="3.9851" stroke-linecap="butt" stroke-linejoin="miter" stroke="rgb(0%, 0%, 0%)" stroke-opacity="1" stroke-miterlimit="10" d="M -24.114898 8.335165 C -25.978652 2.937385 -25.978652 -2.946077 -24.110949 -8.339908 " transform="matrix(0.989267, 0, 0, -0.989267, 36.699815, 36.698826)"/>
</g>
<path fill-rule="nonzero" fill="rgb(0%, 0%, 0%)" fill-opacity="1" stroke-width="2.5172" stroke-linecap="butt" stroke-linejoin="round" stroke="rgb(0%, 0%, 0%)" stroke-opacity="1" stroke-miterlimit="10" d="M -20.853328 14.696411 C -24.162282 13.239366 -27.384365 11.20582 -30.416915 8.66685 C -28.233321 8.856384 -26.061574 8.939305 -23.905621 8.915614 C -22.207709 7.620462 -20.454516 6.420078 -18.657889 5.31841 C -19.842478 8.121939 -20.58877 11.280844 -20.853328 14.696411 Z M -20.853328 14.696411 " transform="matrix(0.989267, 0, 0, -0.989267, 36.699815, 36.698826)"/>
<path fill-rule="nonzero" fill="rgb(0%, 0%, 0%)" fill-opacity="1" stroke-width="2.5172" stroke-linecap="butt" stroke-linejoin="round" stroke="rgb(0%, 0%, 0%)" stroke-opacity="1" stroke-miterlimit="10" d="M -20.853328 -14.697206 C -20.58877 -11.27769 -19.842478 -8.122733 -18.657889 -5.323153 C -20.454516 -6.424822 -22.20376 -7.625206 -23.905621 -8.920357 C -26.057625 -8.947998 -28.229373 -8.865076 -30.412966 -8.675542 C -27.384365 -11.210564 -24.162282 -13.240161 -20.853328 -14.697206 Z M -20.853328 -14.697206 " transform="matrix(0.989267, 0, 0, -0.989267, 36.699815, 36.698826)"/>
<g clip-path="url(#clip-6)">
<path fill="none" stroke-width="3.9851" stroke-linecap="butt" stroke-linejoin="miter" stroke="rgb(0%, 0%, 0%)" stroke-opacity="1" stroke-miterlimit="10" d="M 4.84042 -25.050519 C 10.443529 -23.968594 15.541213 -21.022914 19.280567 -16.711008 " transform="matrix(0.989267, 0, 0, -0.989267, 36.699815, 36.698826)"/>
</g>
<path fill-rule="nonzero" fill="rgb(0%, 0%, 0%)" fill-opacity="1" stroke-width="2.5172" stroke-linecap="butt" stroke-linejoin="round" stroke="rgb(0%, 0%, 0%)" stroke-opacity="1" stroke-miterlimit="10" d="M -2.298706 -25.409844 C 0.615384 -27.542106 3.987516 -29.31899 7.703178 -30.673371 C 6.447514 -28.876743 5.286616 -27.040629 4.232331 -25.16108 C 4.504787 -23.040665 4.66668 -20.924198 4.721961 -18.819578 C 2.889796 -21.244038 0.524566 -23.471066 -2.298706 -25.409844 Z M -2.298706 -25.409844 " transform="matrix(0.989267, 0, 0, -0.989267, 36.699815, 36.698826)"/>
<path fill-rule="nonzero" fill="rgb(0%, 0%, 0%)" fill-opacity="1" stroke-width="2.5172" stroke-linecap="butt" stroke-linejoin="round" stroke="rgb(0%, 0%, 0%)" stroke-opacity="1" stroke-miterlimit="10" d="M 23.154175 -10.713036 C 20.062397 -12.189824 16.954823 -13.121702 13.942017 -13.496822 C 15.789977 -14.499774 17.705063 -15.415857 19.679379 -16.241121 C 20.777099 -18.093029 21.791897 -20.016013 22.719826 -22.002175 C 23.398991 -18.108824 23.54509 -14.306291 23.154175 -10.713036 Z M 23.154175 -10.713036 " transform="matrix(0.989267, 0, 0, -0.989267, 36.699815, 36.698826)"/>
</svg>
