<?xml version="1.0" encoding="UTF-8"?>
<svg xmlns="http://www.w3.org/2000/svg" xmlns:xlink="http://www.w3.org/1999/xlink" width="65.99" height="68.639" viewBox="0 0 65.99 68.639">
<defs>
<clipPath id="clip-0">
<path clip-rule="nonzero" d="M 0.167969 0 L 65.8125 0 L 65.8125 68.28125 L 0.167969 68.28125 Z M 0.167969 0 "/>
</clipPath>
<clipPath id="clip-1">
<path clip-rule="nonzero" d="M 21 0 L 65.8125 0 L 65.8125 68.28125 L 21 68.28125 Z M 21 0 "/>
</clipPath>
<clipPath id="clip-2">
<path clip-rule="nonzero" d="M 0.167969 0 L 56 0 L 56 49 L 0.167969 49 Z M 0.167969 0 "/>
</clipPath>
<clipPath id="clip-3">
<path clip-rule="nonzero" d="M 0.167969 20 L 56 20 L 56 68.28125 L 0.167969 68.28125 Z M 0.167969 20 "/>
</clipPath>
<clipPath id="clip-4">
<path clip-rule="nonzero" d="M 0.167969 0 L 63 0 L 63 63 L 0.167969 63 Z M 0.167969 0 "/>
</clipPath>
<clipPath id="clip-5">
<path clip-rule="nonzero" d="M 0.167969 5 L 63 5 L 63 68.28125 L 0.167969 68.28125 Z M 0.167969 5 "/>
</clipPath>
<clipPath id="clip-6">
<path clip-rule="nonzero" d="M 0.167969 0 L 65.8125 0 L 65.8125 54 L 0.167969 54 Z M 0.167969 0 "/>
</clipPath>
<clipPath id="clip-7">
<path clip-rule="nonzero" d="M 33 0 L 65.8125 0 L 65.8125 44 L 33 44 Z M 33 0 "/>
</clipPath>
<clipPath id="clip-8">
<path clip-rule="nonzero" d="M 0.167969 0 L 41 0 L 41 68.28125 L 0.167969 68.28125 Z M 0.167969 0 "/>
</clipPath>
<clipPath id="clip-9">
<path clip-rule="nonzero" d="M 0.167969 0 L 30 0 L 30 43 L 0.167969 43 Z M 0.167969 0 "/>
</clipPath>
<clipPath id="clip-10">
<path clip-rule="nonzero" d="M 0.167969 25 L 30 25 L 30 68.28125 L 0.167969 68.28125 Z M 0.167969 25 "/>
</clipPath>
<clipPath id="clip-11">
<path clip-rule="nonzero" d="M 0.167969 14 L 65.8125 14 L 65.8125 68.28125 L 0.167969 68.28125 Z M 0.167969 14 "/>
</clipPath>
<clipPath id="clip-12">
<path clip-rule="nonzero" d="M 8 40 L 54 40 L 54 68.28125 L 8 68.28125 Z M 8 40 "/>
</clipPath>
<clipPath id="clip-13">
<path clip-rule="nonzero" d="M 33 25 L 65.8125 25 L 65.8125 68.28125 L 33 68.28125 Z M 33 25 "/>
</clipPath>
</defs>
<g clip-path="url(#clip-0)">
<path fill="none" stroke-width="2.39105" stroke-linecap="butt" stroke-linejoin="miter" stroke="rgb(0%, 0%, 0%)" stroke-opacity="1" stroke-miterlimit="10" d="M 4.697825 -0.00118422 C 4.697825 2.594427 2.593063 4.695262 0.00137884 4.695262 C -2.594232 4.695262 -4.695067 2.594427 -4.695067 -0.00118422 C -4.695067 -2.592869 -2.594232 -4.69763 0.00137884 -4.69763 C 2.593063 -4.69763 4.697825 -2.592869 4.697825 -0.00118422 Z M 4.697825 -0.00118422 " transform="matrix(0.994768, 0, 0, -0.994768, 31.752535, 34.139447)"/>
</g>
<g clip-path="url(#clip-1)">
<path fill="none" stroke-width="2.39105" stroke-linecap="butt" stroke-linejoin="miter" stroke="rgb(0%, 0%, 0%)" stroke-opacity="1" stroke-miterlimit="10" d="M 33.041428 -0.00118422 C 33.041428 2.594427 30.940593 4.695262 28.344982 4.695262 C 25.753297 4.695262 23.648536 2.594427 23.648536 -0.00118422 C 23.648536 -2.592869 25.753297 -4.69763 28.344982 -4.69763 C 30.940593 -4.69763 33.041428 -2.592869 33.041428 -0.00118422 Z M 33.041428 -0.00118422 " transform="matrix(0.994768, 0, 0, -0.994768, 31.752535, 34.139447)"/>
</g>
<g clip-path="url(#clip-2)">
<path fill="none" stroke-width="2.39105" stroke-linecap="butt" stroke-linejoin="miter" stroke="rgb(0%, 0%, 0%)" stroke-opacity="1" stroke-miterlimit="10" d="M -9.477903 24.549135 C -9.477903 27.144746 -11.578738 29.245581 -14.174349 29.245581 C -16.766034 29.245581 -18.870796 27.144746 -18.870796 24.549135 C -18.870796 21.953524 -16.766034 19.852689 -14.174349 19.852689 C -11.578738 19.852689 -9.477903 21.953524 -9.477903 24.549135 Z M -9.477903 24.549135 " transform="matrix(0.994768, 0, 0, -0.994768, 31.752535, 34.139447)"/>
</g>
<g clip-path="url(#clip-3)">
<path fill="none" stroke-width="2.39105" stroke-linecap="butt" stroke-linejoin="miter" stroke="rgb(0%, 0%, 0%)" stroke-opacity="1" stroke-miterlimit="10" d="M -9.477903 -24.547577 C -9.477903 -21.955892 -11.578738 -19.851131 -14.174349 -19.851131 C -16.766034 -19.851131 -18.870796 -21.955892 -18.870796 -24.547577 C -18.870796 -27.143188 -16.766034 -29.244023 -14.174349 -29.244023 C -11.578738 -29.244023 -9.477903 -27.143188 -9.477903 -24.547577 Z M -9.477903 -24.547577 " transform="matrix(0.994768, 0, 0, -0.994768, 31.752535, 34.139447)"/>
</g>
<path fill="none" stroke-width="2.39105" stroke-linecap="butt" stroke-linejoin="miter" stroke="rgb(0%, 0%, 0%)" stroke-opacity="1" stroke-miterlimit="10" d="M 5.667743 -0.00118422 L 22.678617 -0.00118422 " transform="matrix(0.994768, 0, 0, -0.994768, 31.752535, 34.139447)"/>
<g clip-path="url(#clip-4)">
<path fill="none" stroke-width="2.39105" stroke-linecap="butt" stroke-linejoin="miter" stroke="rgb(0%, 0%, 0%)" stroke-opacity="1" stroke-miterlimit="10" d="M -2.833767 4.911236 L -11.339204 19.640642 " transform="matrix(0.994768, 0, 0, -0.994768, 31.752535, 34.139447)"/>
</g>
<g clip-path="url(#clip-5)">
<path fill="none" stroke-width="2.39105" stroke-linecap="butt" stroke-linejoin="miter" stroke="rgb(0%, 0%, 0%)" stroke-opacity="1" stroke-miterlimit="10" d="M -2.833767 -4.909677 L -11.339204 -19.639084 " transform="matrix(0.994768, 0, 0, -0.994768, 31.752535, 34.139447)"/>
</g>
<g clip-path="url(#clip-6)">
<path fill="none" stroke-width="2.39105" stroke-linecap="butt" stroke-linejoin="miter" stroke="rgb(86.399841%, 7.998657%, 23.498535%)" stroke-opacity="1" stroke-miterlimit="10" d="M 24.869769 14.551516 C 21.932526 22.621079 8.62462 30.305816 0.170231 28.813634 " transform="matrix(0.994768, 0, 0, -0.994768, 31.752535, 34.139447)"/>
</g>
<path fill-rule="nonzero" fill="rgb(86.399841%, 7.998657%, 23.498535%)" fill-opacity="1" d="M 57.769531 23.175781 L 58.847656 17.199219 L 56.613281 19.992188 L 53.101562 19.289062 Z M 57.769531 23.175781 "/>
<g clip-path="url(#clip-7)">
<path fill="none" stroke-width="1.40979" stroke-linecap="butt" stroke-linejoin="miter" stroke="rgb(86.399841%, 7.998657%, 23.498535%)" stroke-opacity="1" stroke-miterlimit="10" d="M 7.216556 -0.000948855 L 1.941501 3.072228 L 3.811682 0.00132397 L 1.940156 -3.07426 Z M 7.216556 -0.000948855 " transform="matrix(0.340211, 0.934784, 0.934784, -0.340211, 55.315269, 16.42954)"/>
</g>
<path fill-rule="nonzero" fill="rgb(86.399841%, 7.998657%, 23.498535%)" fill-opacity="1" stroke-width="1.40979" stroke-linecap="butt" stroke-linejoin="miter" stroke="rgb(86.399841%, 7.998657%, 23.498535%)" stroke-opacity="1" stroke-miterlimit="10" d="M 7.216989 -0.000377693 L 1.940897 3.071085 L 3.811453 -0.00204575 L 1.942082 -3.073712 Z M 7.216989 -0.000377693 " transform="matrix(-0.979648, 0.172722, 0.172722, 0.979648, 35.308453, 4.87884)"/>
<g clip-path="url(#clip-8)">
<path fill="none" stroke-width="2.39105" stroke-linecap="butt" stroke-linejoin="miter" stroke="rgb(86.399841%, 7.998657%, 23.498535%)" stroke-opacity="1" stroke-miterlimit="10" d="M -25.035863 14.260934 C -30.556936 7.683553 -30.556936 -7.685921 -25.035863 -14.259375 " transform="matrix(0.994768, 0, 0, -0.994768, 31.752535, 34.139447)"/>
</g>
<path fill-rule="nonzero" fill="rgb(86.399841%, 7.998657%, 23.498535%)" fill-opacity="1" d="M 9.25 17.089844 L 3.535156 19.144531 L 7.070312 19.683594 L 8.21875 23.074219 Z M 9.25 17.089844 "/>
<g clip-path="url(#clip-9)">
<path fill="none" stroke-width="1.40979" stroke-linecap="butt" stroke-linejoin="miter" stroke="rgb(86.399841%, 7.998657%, 23.498535%)" stroke-opacity="1" stroke-miterlimit="10" d="M 7.216783 -0.00117689 L 1.941617 3.072019 L 3.81088 0.00130983 L 1.94192 -3.074077 Z M 7.216783 -0.00117689 " transform="matrix(0.639417, -0.762012, -0.762012, -0.639417, 4.634569, 22.588369)"/>
</g>
<path fill-rule="nonzero" fill="rgb(86.399841%, 7.998657%, 23.498535%)" fill-opacity="1" d="M 9.25 51.191406 L 8.21875 45.203125 L 7.070312 48.59375 L 3.535156 49.132812 Z M 9.25 51.191406 "/>
<g clip-path="url(#clip-10)">
<path fill="none" stroke-width="1.40979" stroke-linecap="butt" stroke-linejoin="miter" stroke="rgb(86.399841%, 7.998657%, 23.498535%)" stroke-opacity="1" stroke-miterlimit="10" d="M 7.218598 -0.000345576 L 1.940726 3.075078 L 3.809686 -0.000308113 L 1.940424 -3.071017 Z M 7.218598 -0.000345576 " transform="matrix(0.639417, 0.762012, 0.762012, -0.639417, 4.634569, 45.690525)"/>
</g>
<g clip-path="url(#clip-11)">
<path fill="none" stroke-width="2.39105" stroke-linecap="butt" stroke-linejoin="miter" stroke="rgb(86.399841%, 7.998657%, 23.498535%)" stroke-opacity="1" stroke-miterlimit="10" d="M 0.170231 -28.812076 C 8.62462 -30.304258 21.932526 -22.619521 24.869769 -14.553885 " transform="matrix(0.994768, 0, 0, -0.994768, 31.752535, 34.139447)"/>
</g>
<path fill-rule="nonzero" fill="rgb(86.399841%, 7.998657%, 23.498535%)" fill-opacity="1" d="M 28.238281 62.152344 L 32.875 66.074219 L 31.574219 62.742188 L 33.9375 60.054688 Z M 28.238281 62.152344 "/>
<g clip-path="url(#clip-12)">
<path fill="none" stroke-width="1.40979" stroke-linecap="butt" stroke-linejoin="miter" stroke="rgb(86.399841%, 7.998657%, 23.498535%)" stroke-opacity="1" stroke-miterlimit="10" d="M 7.217259 -0.001157 L 1.942353 3.072177 L 3.811723 0.000511062 L 1.941168 -3.07262 Z M 7.217259 -0.001157 " transform="matrix(-0.979648, -0.172722, -0.172722, 0.979648, 35.308453, 63.400054)"/>
</g>
<path fill-rule="nonzero" fill="rgb(86.399841%, 7.998657%, 23.498535%)" fill-opacity="1" d="M 57.769531 45.101562 L 53.101562 48.988281 L 56.613281 48.285156 L 58.847656 51.082031 Z M 57.769531 45.101562 "/>
<g clip-path="url(#clip-13)">
<path fill="none" stroke-width="1.40979" stroke-linecap="butt" stroke-linejoin="miter" stroke="rgb(86.399841%, 7.998657%, 23.498535%)" stroke-opacity="1" stroke-miterlimit="10" d="M 7.21802 0.00148181 L 1.94162 3.074793 L 3.813146 -0.000791019 L 1.939275 -3.073038 Z M 7.21802 0.00148181 " transform="matrix(0.340211, -0.934784, -0.934784, -0.340211, 55.315269, 51.849353)"/>
</g>
</svg>
