<?xml version="1.0" encoding="UTF-8"?>
<svg xmlns="http://www.w3.org/2000/svg" xmlns:xlink="http://www.w3.org/1999/xlink" width="64.474" height="63.961" viewBox="0 0 64.474 63.961">
<defs>
<clipPath id="clip-0">
<path clip-rule="nonzero" d="M 0 0.238281 L 63.953125 0.238281 L 63.953125 63.683594 L 0 63.683594 Z M 0 0.238281 "/>
</clipPath>
<clipPath id="clip-1">
<path clip-rule="nonzero" d="M 16 0.238281 L 63.953125 0.238281 L 63.953125 63.683594 L 16 63.683594 Z M 16 0.238281 "/>
</clipPath>
<clipPath id="clip-2">
<path clip-rule="nonzero" d="M 0 0.238281 L 55 0.238281 L 55 48 L 0 48 Z M 0 0.238281 "/>
</clipPath>
<clipPath id="clip-3">
<path clip-rule="nonzero" d="M 0 16 L 55 16 L 55 63.683594 L 0 63.683594 Z M 0 16 "/>
</clipPath>
<clipPath id="clip-4">
<path clip-rule="nonzero" d="M 0 0.238281 L 60 0.238281 L 60 61 L 0 61 Z M 0 0.238281 "/>
</clipPath>
<clipPath id="clip-5">
<path clip-rule="nonzero" d="M 0 3 L 60 3 L 60 63.683594 L 0 63.683594 Z M 0 3 "/>
</clipPath>
<clipPath id="clip-6">
<path clip-rule="nonzero" d="M 0 0.238281 L 63.953125 0.238281 L 63.953125 53 L 0 53 Z M 0 0.238281 "/>
</clipPath>
<clipPath id="clip-7">
<path clip-rule="nonzero" d="M 26 0.238281 L 63.953125 0.238281 L 63.953125 42 L 26 42 Z M 26 0.238281 "/>
</clipPath>
<clipPath id="clip-8">
<path clip-rule="nonzero" d="M 5 0.238281 L 51 0.238281 L 51 30 L 5 30 Z M 5 0.238281 "/>
</clipPath>
<clipPath id="clip-9">
<path clip-rule="nonzero" d="M 0 0.238281 L 40 0.238281 L 40 63.683594 L 0 63.683594 Z M 0 0.238281 "/>
</clipPath>
<clipPath id="clip-10">
<path clip-rule="nonzero" d="M 0 0.238281 L 29 0.238281 L 29 43 L 0 43 Z M 0 0.238281 "/>
</clipPath>
<clipPath id="clip-11">
<path clip-rule="nonzero" d="M 0 21 L 29 21 L 29 63.683594 L 0 63.683594 Z M 0 21 "/>
</clipPath>
<clipPath id="clip-12">
<path clip-rule="nonzero" d="M 0 11 L 63.953125 11 L 63.953125 63.683594 L 0 63.683594 Z M 0 11 "/>
</clipPath>
<clipPath id="clip-13">
<path clip-rule="nonzero" d="M 5 34 L 51 34 L 51 63.683594 L 5 63.683594 Z M 5 34 "/>
</clipPath>
<clipPath id="clip-14">
<path clip-rule="nonzero" d="M 26 22 L 63.953125 22 L 63.953125 63.683594 L 26 63.683594 Z M 26 22 "/>
</clipPath>
</defs>
<g clip-path="url(#clip-0)">
<path fill="none" stroke-width="2.39105" stroke-linecap="butt" stroke-linejoin="miter" stroke="rgb(0%, 0%, 0%)" stroke-opacity="1" stroke-miterlimit="10" d="M 6.235111 -0.000277903 C 6.235111 3.445576 3.442985 6.237702 0.00106926 6.237702 C -3.444784 6.237702 -6.23691 3.445576 -6.23691 -0.000277903 C -6.23691 -3.446132 -3.444784 -6.234319 0.00106926 -6.234319 C 3.442985 -6.234319 6.235111 -3.446132 6.235111 -0.000277903 Z M 6.235111 -0.000277903 " transform="matrix(0.991908, 0, 0, -0.991908, 28.463783, 31.960662)"/>
</g>
<g clip-path="url(#clip-1)">
<path fill="none" stroke-width="2.39105" stroke-linecap="butt" stroke-linejoin="miter" stroke="rgb(0%, 0%, 0%)" stroke-opacity="1" stroke-miterlimit="10" d="M 34.581688 -0.000277903 C 34.581688 3.445576 31.789562 6.237702 28.347646 6.237702 C 24.901792 6.237702 22.109666 3.445576 22.109666 -0.000277903 C 22.109666 -3.446132 24.901792 -6.234319 28.347646 -6.234319 C 31.789562 -6.234319 34.581688 -3.446132 34.581688 -0.000277903 Z M 34.581688 -0.000277903 " transform="matrix(0.991908, 0, 0, -0.991908, 28.463783, 31.960662)"/>
</g>
<g clip-path="url(#clip-2)">
<path fill="none" stroke-width="2.39105" stroke-linecap="butt" stroke-linejoin="miter" stroke="rgb(0%, 0%, 0%)" stroke-opacity="1" stroke-miterlimit="10" d="M -7.938178 24.549953 C -7.938178 27.991868 -10.730304 30.783994 -14.172219 30.783994 C -17.618073 30.783994 -20.410199 27.991868 -20.410199 24.549953 C -20.410199 21.104099 -17.618073 18.311973 -14.172219 18.311973 C -10.730304 18.311973 -7.938178 21.104099 -7.938178 24.549953 Z M -7.938178 24.549953 " transform="matrix(0.991908, 0, 0, -0.991908, 28.463783, 31.960662)"/>
</g>
<g clip-path="url(#clip-3)">
<path fill="none" stroke-width="2.39105" stroke-linecap="butt" stroke-linejoin="miter" stroke="rgb(0%, 0%, 0%)" stroke-opacity="1" stroke-miterlimit="10" d="M -7.938178 -24.550508 C -7.938178 -21.104655 -10.730304 -18.312529 -14.172219 -18.312529 C -17.618073 -18.312529 -20.410199 -21.104655 -20.410199 -24.550508 C -20.410199 -27.992424 -17.618073 -30.78455 -14.172219 -30.78455 C -10.730304 -30.78455 -7.938178 -27.992424 -7.938178 -24.550508 Z M -7.938178 -24.550508 " transform="matrix(0.991908, 0, 0, -0.991908, 28.463783, 31.960662)"/>
</g>
<path fill="none" stroke-width="2.39105" stroke-linecap="butt" stroke-linejoin="miter" stroke="rgb(0%, 0%, 0%)" stroke-opacity="1" stroke-miterlimit="10" d="M 5.668022 -0.000277903 L 22.676755 -0.000277903 " transform="matrix(0.991908, 0, 0, -0.991908, 28.463783, 31.960662)"/>
<g clip-path="url(#clip-4)">
<path fill="none" stroke-width="2.39105" stroke-linecap="butt" stroke-linejoin="miter" stroke="rgb(0%, 0%, 0%)" stroke-opacity="1" stroke-miterlimit="10" d="M -2.834376 4.910556 L -11.340712 19.639119 " transform="matrix(0.991908, 0, 0, -0.991908, 28.463783, 31.960662)"/>
</g>
<g clip-path="url(#clip-5)">
<path fill="none" stroke-width="2.39105" stroke-linecap="butt" stroke-linejoin="miter" stroke="rgb(0%, 0%, 0%)" stroke-opacity="1" stroke-miterlimit="10" d="M -2.834376 -4.911112 L -11.340712 -19.639675 " transform="matrix(0.991908, 0, 0, -0.991908, 28.463783, 31.960662)"/>
</g>
<g clip-path="url(#clip-6)">
<path fill="none" stroke-width="2.39105" stroke-linecap="butt" stroke-linejoin="miter" stroke="rgb(0%, 0%, 0%)" stroke-opacity="1" stroke-miterlimit="10" d="M 21.723731 13.381449 C 17.226399 20.690597 9.306843 25.262752 0.725683 25.502977 " transform="matrix(0.991908, 0, 0, -0.991908, 28.463783, 31.960662)"/>
</g>
<path fill-rule="nonzero" fill="rgb(0%, 0%, 0%)" fill-opacity="1" d="M 51.625 22.050781 L 52.035156 16.007812 L 50.125 19.023438 L 46.570312 18.710938 Z M 51.625 22.050781 "/>
<g clip-path="url(#clip-7)">
<path fill="none" stroke-width="1.40979" stroke-linecap="butt" stroke-linejoin="miter" stroke="rgb(0%, 0%, 0%)" stroke-opacity="1" stroke-miterlimit="10" d="M 7.217712 0.00182803 L 1.939771 3.073303 L 3.811391 -0.000757496 L 1.940266 -3.073593 Z M 7.217712 0.00182803 " transform="matrix(0.439683, 0.889077, 0.889077, -0.439683, 48.44987, 15.634486)"/>
</g>
<path fill-rule="nonzero" fill="rgb(0%, 0%, 0%)" fill-opacity="1" d="M 25.464844 6.949219 L 30.882812 9.65625 L 28.835938 6.730469 L 30.492188 3.570312 Z M 25.464844 6.949219 "/>
<g clip-path="url(#clip-8)">
<path fill="none" stroke-width="1.40979" stroke-linecap="butt" stroke-linejoin="miter" stroke="rgb(0%, 0%, 0%)" stroke-opacity="1" stroke-miterlimit="10" d="M 7.218391 -0.0001265 L 1.942579 3.074479 L 3.812464 -0.00183398 L 1.941344 -3.074065 Z M 7.218391 -0.0001265 " transform="matrix(-0.989805, 0.0637301, 0.0637301, 0.989805, 32.60965, 6.489315)"/>
</g>
<g clip-path="url(#clip-9)">
<path fill="none" stroke-width="2.39105" stroke-linecap="butt" stroke-linejoin="miter" stroke="rgb(0%, 0%, 0%)" stroke-opacity="1" stroke-miterlimit="10" d="M -22.450144 12.125189 C -26.530035 4.575816 -26.530035 -4.572433 -22.450144 -12.121807 " transform="matrix(0.991908, 0, 0, -0.991908, 28.463783, 31.960662)"/>
</g>
<path fill-rule="nonzero" fill="rgb(0%, 0%, 0%)" fill-opacity="1" d="M 8.304688 16.859375 L 2.863281 19.523438 L 6.429688 19.671875 L 7.9375 22.902344 Z M 8.304688 16.859375 "/>
<g clip-path="url(#clip-10)">
<path fill="none" stroke-width="1.40979" stroke-linecap="butt" stroke-linejoin="miter" stroke="rgb(0%, 0%, 0%)" stroke-opacity="1" stroke-miterlimit="10" d="M 7.217864 -0.00203394 L 1.940195 3.073229 L 3.809921 -0.00173146 L 1.942926 -3.073084 Z M 7.217864 -0.00203394 " transform="matrix(0.550112, -0.825327, -0.825327, -0.550112, 4.332375, 22.815352)"/>
</g>
<path fill-rule="nonzero" fill="rgb(0%, 0%, 0%)" fill-opacity="1" d="M 8.304688 47.0625 L 7.9375 41.015625 L 6.429688 44.25 L 2.863281 44.398438 Z M 8.304688 47.0625 "/>
<g clip-path="url(#clip-11)">
<path fill="none" stroke-width="1.40979" stroke-linecap="butt" stroke-linejoin="miter" stroke="rgb(0%, 0%, 0%)" stroke-opacity="1" stroke-miterlimit="10" d="M 7.218327 0.00172566 L 1.940111 3.07496 L 3.810384 0.00142318 L 1.940657 -3.073538 Z M 7.218327 0.00172566 " transform="matrix(0.550112, 0.825327, 0.825327, -0.550112, 4.332375, 41.105971)"/>
</g>
<g clip-path="url(#clip-12)">
<path fill="none" stroke-width="2.39105" stroke-linecap="butt" stroke-linejoin="miter" stroke="rgb(0%, 0%, 0%)" stroke-opacity="1" stroke-miterlimit="10" d="M 0.725683 -25.503533 C 9.306843 -25.263308 17.226399 -20.691152 21.723731 -13.382004 " transform="matrix(0.991908, 0, 0, -0.991908, 28.463783, 31.960662)"/>
</g>
<path fill-rule="nonzero" fill="rgb(0%, 0%, 0%)" fill-opacity="1" d="M 25.464844 56.972656 L 30.492188 60.351562 L 28.835938 57.1875 L 30.882812 54.265625 Z M 25.464844 56.972656 "/>
<g clip-path="url(#clip-13)">
<path fill="none" stroke-width="1.40979" stroke-linecap="butt" stroke-linejoin="miter" stroke="rgb(0%, 0%, 0%)" stroke-opacity="1" stroke-miterlimit="10" d="M 7.218355 0.000681187 L 1.941308 3.07462 L 3.812681 -0.00154153 L 1.942543 -3.073924 Z M 7.218355 0.000681187 " transform="matrix(-0.989805, -0.0637301, -0.0637301, 0.989805, 32.60965, 57.432008)"/>
</g>
<path fill-rule="nonzero" fill="rgb(0%, 0%, 0%)" fill-opacity="1" d="M 51.625 41.871094 L 46.570312 45.210938 L 50.125 44.898438 L 52.035156 47.914062 Z M 51.625 41.871094 "/>
<g clip-path="url(#clip-14)">
<path fill="none" stroke-width="1.40979" stroke-linecap="butt" stroke-linejoin="miter" stroke="rgb(0%, 0%, 0%)" stroke-opacity="1" stroke-miterlimit="10" d="M 7.217172 -0.00214347 L 1.939653 3.073099 L 3.810866 0.000335341 L 1.939351 -3.07377 Z M 7.217172 -0.00214347 " transform="matrix(0.439713, -0.889067, -0.889067, -0.439713, 48.449612, 48.286699)"/>
</g>
</svg>
