<?xml version="1.0" encoding="UTF-8"?>
<svg xmlns="http://www.w3.org/2000/svg" xmlns:xlink="http://www.w3.org/1999/xlink" width="73.288pt" height="73.288pt" viewBox="0 0 73.288 73.288">
<defs>
<clipPath id="clip-0">
<path clip-rule="nonzero" d="M 0 0 L 72.582031 0 L 72.582031 72.582031 L 0 72.582031 Z M 0 0 "/>
</clipPath>
<clipPath id="clip-1">
<path clip-rule="nonzero" d="M 15 0 L 72.582031 0 L 72.582031 72.582031 L 15 72.582031 Z M 15 0 "/>
</clipPath>
<clipPath id="clip-2">
<path clip-rule="nonzero" d="M 0 12 L 71 12 L 71 72.582031 L 0 72.582031 Z M 0 12 "/>
</clipPath>
<clipPath id="clip-3">
<path clip-rule="nonzero" d="M 0 0 L 72.582031 0 L 72.582031 64 L 0 64 Z M 0 0 "/>
</clipPath>
<clipPath id="clip-4">
<path clip-rule="nonzero" d="M 0 0 L 55 0 L 55 72.582031 L 0 72.582031 Z M 0 0 "/>
</clipPath>
<clipPath id="clip-5">
<path clip-rule="nonzero" d="M 0 9 L 72.582031 9 L 72.582031 72.582031 L 0 72.582031 Z M 0 9 "/>
</clipPath>
</defs>
<path fill="none" stroke-width="3.9851" stroke-linecap="butt" stroke-linejoin="miter" stroke="rgb(0%, 0%, 0%)" stroke-opacity="1" stroke-miterlimit="10" d="M 5.669373 -0.00155845 L 22.676762 -0.00155845 " transform="matrix(0.990378, 0, 0, -0.990378, 36.291425, 36.291425)"/>
<g clip-path="url(#clip-0)">
<path fill="none" stroke-width="3.9851" stroke-linecap="butt" stroke-linejoin="miter" stroke="rgb(0%, 0%, 0%)" stroke-opacity="1" stroke-miterlimit="10" d="M -2.834321 4.90897 L -11.338015 19.640556 " transform="matrix(0.990378, 0, 0, -0.990378, 36.291425, 36.291425)"/>
<path fill="none" stroke-width="3.9851" stroke-linecap="butt" stroke-linejoin="miter" stroke="rgb(0%, 0%, 0%)" stroke-opacity="1" stroke-miterlimit="10" d="M -2.834321 -4.908143 L -11.338015 -19.639728 " transform="matrix(0.990378, 0, 0, -0.990378, 36.291425, 36.291425)"/>
<path fill="none" stroke-width="2.98883" stroke-linecap="butt" stroke-linejoin="miter" stroke="rgb(0%, 0%, 0%)" stroke-opacity="1" stroke-miterlimit="10" d="M 6.801359 -0.00155845 C 6.801359 3.757264 3.756436 6.802186 0.00155845 6.802186 C -3.757264 6.802186 -6.802186 3.757264 -6.802186 -0.00155845 C -6.802186 -3.756436 -3.757264 -6.801359 0.00155845 -6.801359 C 3.756436 -6.801359 6.801359 -3.756436 6.801359 -0.00155845 Z M 6.801359 -0.00155845 " transform="matrix(0.990378, 0, 0, -0.990378, 36.291425, 36.291425)"/>
</g>
<path fill-rule="nonzero" fill="rgb(50%, 50%, 50%)" fill-opacity="1" d="M 71.101562 36.292969 C 71.101562 32.570312 68.085938 29.554688 64.367188 29.554688 C 60.644531 29.554688 57.628906 32.570312 57.628906 36.292969 C 57.628906 40.011719 60.644531 43.027344 64.367188 43.027344 C 68.085938 43.027344 71.101562 40.011719 71.101562 36.292969 Z M 71.101562 36.292969 "/>
<g clip-path="url(#clip-1)">
<path fill="none" stroke-width="2.98883" stroke-linecap="butt" stroke-linejoin="miter" stroke="rgb(0%, 0%, 0%)" stroke-opacity="1" stroke-miterlimit="10" d="M 35.148321 -0.00155845 C 35.148321 3.757264 32.103399 6.802186 28.348521 6.802186 C 24.589699 6.802186 21.544777 3.757264 21.544777 -0.00155845 C 21.544777 -3.756436 24.589699 -6.801359 28.348521 -6.801359 C 32.103399 -6.801359 35.148321 -3.756436 35.148321 -0.00155845 Z M 35.148321 -0.00155845 " transform="matrix(0.990378, 0, 0, -0.990378, 36.291425, 36.291425)"/>
</g>
<path fill-rule="nonzero" fill="rgb(66.398621%, 66.398621%, 66.398621%)" fill-opacity="1" stroke-width="2.98883" stroke-linecap="butt" stroke-linejoin="miter" stroke="rgb(0%, 0%, 0%)" stroke-opacity="1" stroke-miterlimit="10" d="M -7.370151 24.54714 C -7.370151 28.305962 -10.415073 31.350884 -14.173895 31.350884 C -17.928773 31.350884 -20.977639 28.305962 -20.977639 24.54714 C -20.977639 20.792262 -17.928773 17.74734 -14.173895 17.74734 C -10.415073 17.74734 -7.370151 20.792262 -7.370151 24.54714 Z M -7.370151 24.54714 " transform="matrix(0.990378, 0, 0, -0.990378, 36.291425, 36.291425)"/>
<path fill-rule="nonzero" fill="rgb(82.798767%, 82.798767%, 82.798767%)" fill-opacity="1" d="M 28.992188 60.605469 C 28.992188 56.882812 25.976562 53.867188 22.253906 53.867188 C 18.535156 53.867188 15.515625 56.882812 15.515625 60.605469 C 15.515625 64.324219 18.535156 67.34375 22.253906 67.34375 C 25.976562 67.34375 28.992188 64.324219 28.992188 60.605469 Z M 28.992188 60.605469 "/>
<g clip-path="url(#clip-2)">
<path fill="none" stroke-width="2.98883" stroke-linecap="butt" stroke-linejoin="miter" stroke="rgb(0%, 0%, 0%)" stroke-opacity="1" stroke-miterlimit="10" d="M -7.370151 -24.550257 C -7.370151 -20.791435 -10.415073 -17.746512 -14.173895 -17.746512 C -17.928773 -17.746512 -20.977639 -20.791435 -20.977639 -24.550257 C -20.977639 -28.305135 -17.928773 -31.354001 -14.173895 -31.354001 C -10.415073 -31.354001 -7.370151 -28.305135 -7.370151 -24.550257 Z M -7.370151 -24.550257 " transform="matrix(0.990378, 0, 0, -0.990378, 36.291425, 36.291425)"/>
</g>
<g clip-path="url(#clip-3)">
<path fill="none" stroke-width="2.98883" stroke-linecap="butt" stroke-linejoin="miter" stroke="rgb(0%, 0%, 0%)" stroke-opacity="1" stroke-miterlimit="10" d="M 20.432512 15.282215 C 16.255605 20.867202 9.944886 24.511642 3.018871 25.33598 " transform="matrix(0.990378, 0, 0, -0.990378, 36.291425, 36.291425)"/>
</g>
<path fill-rule="nonzero" fill="rgb(0%, 0%, 0%)" fill-opacity="1" stroke-width="2.0569" stroke-linecap="butt" stroke-linejoin="round" stroke="rgb(0%, 0%, 0%)" stroke-opacity="1" stroke-miterlimit="10" d="M 23.248671 10.501845 C 23.382774 13.247008 23.193452 16.102609 22.680706 19.013428 C 22.085132 17.593516 21.438283 16.209102 20.732272 14.868074 C 19.265029 14.568315 17.829341 14.201504 16.425206 13.767642 C 18.72073 12.998523 21.01231 11.90598 23.248671 10.501845 Z M 23.248671 10.501845 " transform="matrix(0.990378, 0, 0, -0.990378, 36.291425, 36.291425)"/>
<path fill-rule="nonzero" fill="rgb(0%, 0%, 0%)" fill-opacity="1" stroke-width="2.0569" stroke-linecap="butt" stroke-linejoin="round" stroke="rgb(0%, 0%, 0%)" stroke-opacity="1" stroke-miterlimit="10" d="M -2.530618 25.387254 C -0.195652 24.15272 1.898718 22.713087 3.709106 21.107798 C 3.381738 22.539542 2.979429 23.967342 2.510069 25.391199 C 3.314686 26.669119 4.190298 27.923375 5.12113 29.150021 C 2.348357 28.136361 -0.219317 26.874218 -2.530618 25.387254 Z M -2.530618 25.387254 " transform="matrix(0.990378, 0, 0, -0.990378, 36.291425, 36.291425)"/>
<g clip-path="url(#clip-4)">
<path fill="none" stroke-width="2.98883" stroke-linecap="butt" stroke-linejoin="miter" stroke="rgb(0%, 0%, 0%)" stroke-opacity="1" stroke-miterlimit="10" d="M -23.450652 10.052206 C -26.199759 3.642882 -26.199759 -3.642055 -23.450652 -10.051379 " transform="matrix(0.990378, 0, 0, -0.990378, 36.291425, 36.291425)"/>
</g>
<path fill-rule="nonzero" fill="rgb(0%, 0%, 0%)" fill-opacity="1" stroke-width="2.0569" stroke-linecap="butt" stroke-linejoin="round" stroke="rgb(0%, 0%, 0%)" stroke-opacity="1" stroke-miterlimit="10" d="M -20.721266 14.883851 C -23.162726 13.625651 -25.545022 12.036139 -27.808993 10.135035 C -26.278643 10.332244 -24.756182 10.462403 -23.245554 10.521566 C -22.247671 9.401413 -21.210347 8.340424 -20.13358 7.338597 C -20.618717 9.713005 -20.819871 12.245181 -20.721266 14.883851 Z M -20.721266 14.883851 " transform="matrix(0.990378, 0, 0, -0.990378, 36.291425, 36.291425)"/>
<path fill-rule="nonzero" fill="rgb(0%, 0%, 0%)" fill-opacity="1" stroke-width="2.0569" stroke-linecap="butt" stroke-linejoin="round" stroke="rgb(0%, 0%, 0%)" stroke-opacity="1" stroke-miterlimit="10" d="M -20.721266 -14.883024 C -20.819871 -12.244354 -20.618717 -9.712178 -20.13358 -7.341714 C -21.210347 -8.343541 -22.247671 -9.40453 -23.24161 -10.520739 C -24.756182 -10.461576 -26.278643 -10.335361 -27.805049 -10.142096 C -25.541078 -12.035311 -23.162726 -13.624824 -20.721266 -14.883024 Z M -20.721266 -14.883024 " transform="matrix(0.990378, 0, 0, -0.990378, 36.291425, 36.291425)"/>
<g clip-path="url(#clip-5)">
<path fill="none" stroke-width="2.98883" stroke-linecap="butt" stroke-linejoin="miter" stroke="rgb(0%, 0%, 0%)" stroke-opacity="1" stroke-miterlimit="10" d="M 3.018871 -25.335152 C 9.944886 -24.510815 16.255605 -20.866374 20.432512 -15.281388 " transform="matrix(0.990378, 0, 0, -0.990378, 36.291425, 36.291425)"/>
</g>
<path fill-rule="nonzero" fill="rgb(0%, 0%, 0%)" fill-opacity="1" stroke-width="2.0569" stroke-linecap="butt" stroke-linejoin="round" stroke="rgb(0%, 0%, 0%)" stroke-opacity="1" stroke-miterlimit="10" d="M -2.530618 -25.386427 C -0.219317 -26.87339 2.348357 -28.139478 5.125074 -29.149193 C 4.190298 -27.922547 3.31863 -26.668292 2.510069 -25.390371 C 2.983373 -23.970459 3.381738 -22.538715 3.709106 -21.10697 C 1.898718 -22.71226 -0.195652 -24.151893 -2.530618 -25.386427 Z M -2.530618 -25.386427 " transform="matrix(0.990378, 0, 0, -0.990378, 36.291425, 36.291425)"/>
<path fill-rule="nonzero" fill="rgb(0%, 0%, 0%)" fill-opacity="1" stroke-width="2.0569" stroke-linecap="butt" stroke-linejoin="round" stroke="rgb(0%, 0%, 0%)" stroke-opacity="1" stroke-miterlimit="10" d="M 23.248671 -10.501018 C 21.01231 -11.905153 18.72073 -13.00164 16.425206 -13.766815 C 17.829341 -14.196733 19.268973 -14.567488 20.736216 -14.867247 C 21.438283 -16.208275 22.089076 -17.588744 22.68465 -19.008656 C 23.193452 -16.101781 23.382774 -13.246181 23.248671 -10.501018 Z M 23.248671 -10.501018 " transform="matrix(0.990378, 0, 0, -0.990378, 36.291425, 36.291425)"/>
</svg>
