<?xml version="1.0" encoding="UTF-8"?>
<svg xmlns="http://www.w3.org/2000/svg" xmlns:xlink="http://www.w3.org/1999/xlink" width="68.829" height="65.555" viewBox="0 0 68.829 65.555">
<defs>
<clipPath id="clip-0">
<path clip-rule="nonzero" d="M 0.148438 0 L 68.511719 0 L 68.511719 65.113281 L 0.148438 65.113281 Z M 0.148438 0 "/>
</clipPath>
<clipPath id="clip-1">
<path clip-rule="nonzero" d="M 0.148438 0 L 68.511719 0 L 68.511719 65.113281 L 0.148438 65.113281 Z M 0.148438 0 "/>
</clipPath>
<clipPath id="clip-2">
<path clip-rule="nonzero" d="M 18 0 L 68.511719 0 L 68.511719 51 L 18 51 Z M 18 0 "/>
</clipPath>
<clipPath id="clip-3">
<path clip-rule="nonzero" d="M 0.148438 0 L 65 0 L 65 65.113281 L 0.148438 65.113281 Z M 0.148438 0 "/>
</clipPath>
<clipPath id="clip-4">
<path clip-rule="nonzero" d="M 0.148438 0 L 43 0 L 43 56 L 0.148438 56 Z M 0.148438 0 "/>
</clipPath>
<clipPath id="clip-5">
<path clip-rule="nonzero" d="M 0.148438 9 L 43 9 L 43 65.113281 L 0.148438 65.113281 Z M 0.148438 9 "/>
</clipPath>
<clipPath id="clip-6">
<path clip-rule="nonzero" d="M 0.148438 0 L 68.511719 0 L 68.511719 65.113281 L 0.148438 65.113281 Z M 0.148438 0 "/>
</clipPath>
<clipPath id="clip-7">
<path clip-rule="nonzero" d="M 1 23 L 68 23 L 68 65.113281 L 1 65.113281 Z M 1 23 "/>
</clipPath>
<clipPath id="clip-8">
<path clip-rule="nonzero" d="M 18 14 L 68.511719 14 L 68.511719 65.113281 L 18 65.113281 Z M 18 14 "/>
</clipPath>
</defs>
<g clip-path="url(#clip-0)">
<path fill="none" stroke-width="3.9851" stroke-linecap="butt" stroke-linejoin="miter" stroke="rgb(29.399109%, 0%, 50.999451%)" stroke-opacity="1" stroke-miterlimit="10" d="M 6.237317 0.00132499 C 6.237317 3.442496 3.445053 6.23476 -0.0000500725 6.23476 C -3.445153 6.23476 -6.237418 3.442496 -6.237418 0.00132499 C -6.237418 -3.443778 -3.445153 -6.236042 -0.0000500725 -6.236042 C 3.445053 -6.236042 6.237317 -3.443778 6.237317 0.00132499 Z M 6.237317 0.00132499 " transform="matrix(0.993258, 0, 0, -0.993258, 32.183643, 32.556004)"/>
<path fill="none" stroke-width="3.9851" stroke-linecap="butt" stroke-linejoin="miter" stroke="rgb(29.399109%, 0%, 50.999451%)" stroke-opacity="1" stroke-miterlimit="10" d="M 34.584697 0.00132499 C 34.584697 3.442496 31.792433 6.23476 28.34733 6.23476 C 24.902227 6.23476 22.109963 3.442496 22.109963 0.00132499 C 22.109963 -3.443778 24.902227 -6.236042 28.34733 -6.236042 C 31.792433 -6.236042 34.584697 -3.443778 34.584697 0.00132499 Z M 34.584697 0.00132499 " transform="matrix(0.993258, 0, 0, -0.993258, 32.183643, 32.556004)"/>
<path fill="none" stroke-width="3.9851" stroke-linecap="butt" stroke-linejoin="miter" stroke="rgb(29.399109%, 0%, 50.999451%)" stroke-opacity="1" stroke-miterlimit="10" d="M -7.936373 24.549653 C -7.936373 27.994756 -10.728637 30.78702 -14.17374 30.78702 C -17.618843 30.78702 -20.411108 27.994756 -20.411108 24.549653 C -20.411108 21.104549 -17.618843 18.312285 -14.17374 18.312285 C -10.728637 18.312285 -7.936373 21.104549 -7.936373 24.549653 Z M -7.936373 24.549653 " transform="matrix(0.993258, 0, 0, -0.993258, 32.183643, 32.556004)"/>
<path fill="none" stroke-width="3.9851" stroke-linecap="butt" stroke-linejoin="miter" stroke="rgb(29.399109%, 0%, 50.999451%)" stroke-opacity="1" stroke-miterlimit="10" d="M -7.936373 -24.550936 C -7.936373 -21.105832 -10.728637 -18.313568 -14.17374 -18.313568 C -17.618843 -18.313568 -20.411108 -21.105832 -20.411108 -24.550936 C -20.411108 -27.992106 -17.618843 -30.78437 -14.17374 -30.78437 C -10.728637 -30.78437 -7.936373 -27.992106 -7.936373 -24.550936 Z M -7.936373 -24.550936 " transform="matrix(0.993258, 0, 0, -0.993258, 32.183643, 32.556004)"/>
</g>
<path fill="none" stroke-width="3.9851" stroke-linecap="butt" stroke-linejoin="miter" stroke="rgb(29.399109%, 0%, 50.999451%)" stroke-opacity="1" stroke-miterlimit="10" d="M 5.670999 0.00132499 L 22.676281 0.00132499 " transform="matrix(0.993258, 0, 0, -0.993258, 32.183643, 32.556004)"/>
<g clip-path="url(#clip-1)">
<path fill="none" stroke-width="3.9851" stroke-linecap="butt" stroke-linejoin="miter" stroke="rgb(29.399109%, 0%, 50.999451%)" stroke-opacity="1" stroke-miterlimit="10" d="M -2.835575 4.909417 L -11.338216 19.637628 " transform="matrix(0.993258, 0, 0, -0.993258, 32.183643, 32.556004)"/>
<path fill="none" stroke-width="3.9851" stroke-linecap="butt" stroke-linejoin="miter" stroke="rgb(29.399109%, 0%, 50.999451%)" stroke-opacity="1" stroke-miterlimit="10" d="M -2.835575 -4.9107 L -11.338216 -19.63891 " transform="matrix(0.993258, 0, 0, -0.993258, 32.183643, 32.556004)"/>
<path fill="none" stroke-width="3.9851" stroke-linecap="butt" stroke-linejoin="miter" stroke="rgb(72.999573%, 33.198547%, 82.798767%)" stroke-opacity="1" stroke-miterlimit="10" d="M 19.722773 16.184659 C 15.801805 20.966903 10.252672 24.168174 4.149018 25.174963 " transform="matrix(0.993258, 0, 0, -0.993258, 32.183643, 32.556004)"/>
</g>
<path fill-rule="nonzero" fill="rgb(72.999573%, 33.198547%, 82.798767%)" fill-opacity="1" d="M 54.996094 21.519531 C 55.433594 18.578125 55.507812 15.46875 55.222656 12.265625 C 54.230469 13.847656 53.183594 15.382812 52.09375 16.878906 C 50.417969 17.644531 48.78125 18.46875 47.183594 19.351562 C 49.746094 19.691406 52.371094 20.417969 54.996094 21.519531 Z M 54.996094 21.519531 "/>
<g clip-path="url(#clip-2)">
<path fill="none" stroke-width="2.07053" stroke-linecap="butt" stroke-linejoin="miter" stroke="rgb(72.999573%, 33.198547%, 82.798767%)" stroke-opacity="1" stroke-miterlimit="10" d="M 22.967306 11.11139 C 23.407775 14.072763 23.482498 17.203245 23.195406 20.428114 C 22.196483 18.835343 21.142502 17.289766 20.04526 15.783516 C 18.358103 15.012694 16.710274 14.182881 15.101773 13.294075 C 17.681668 12.951925 20.324487 12.22043 22.967306 11.11139 Z M 22.967306 11.11139 " transform="matrix(0.993258, 0, 0, -0.993258, 32.183643, 32.556004)"/>
</g>
<path fill-rule="nonzero" fill="rgb(72.999573%, 33.198547%, 82.798767%)" fill-opacity="1" stroke-width="2.07053" stroke-linecap="butt" stroke-linejoin="miter" stroke="rgb(72.999573%, 33.198547%, 82.798767%)" stroke-opacity="1" stroke-miterlimit="10" d="M -1.860249 25.446323 C 0.420756 23.711973 2.375341 21.788851 3.960246 19.728081 C 3.924851 21.564683 3.818666 23.405218 3.645624 25.253618 C 4.396783 26.956506 5.210865 28.63973 6.087872 30.30329 C 3.154029 28.93862 0.48368 27.306522 -1.860249 25.446323 Z M -1.860249 25.446323 " transform="matrix(0.993258, 0, 0, -0.993258, 32.183643, 32.556004)"/>
<g clip-path="url(#clip-3)">
<path fill="none" stroke-width="3.9851" stroke-linecap="butt" stroke-linejoin="miter" stroke="rgb(85.499573%, 43.998718%, 83.999634%)" stroke-opacity="1" stroke-miterlimit="10" d="M -23.879808 8.987696 C -26.05856 3.202597 -26.054627 -3.20388 -23.875875 -8.992912 " transform="matrix(0.993258, 0, 0, -0.993258, 32.183643, 32.556004)"/>
</g>
<path fill-rule="nonzero" fill="rgb(85.499573%, 43.998718%, 83.999634%)" fill-opacity="1" d="M 11.21875 18.320312 C 8.453125 19.410156 5.722656 20.898438 3.09375 22.746094 C 4.957031 22.820312 6.8125 22.957031 8.652344 23.152344 C 10.152344 24.21875 11.683594 25.222656 13.246094 26.167969 C 12.261719 23.78125 11.578125 21.140625 11.21875 18.320312 Z M 11.21875 18.320312 "/>
<g clip-path="url(#clip-4)">
<path fill="none" stroke-width="2.07053" stroke-linecap="butt" stroke-linejoin="miter" stroke="rgb(85.499573%, 43.998718%, 83.999634%)" stroke-opacity="1" stroke-miterlimit="10" d="M -21.107207 14.332326 C -23.891606 13.235084 -26.64061 11.7367 -29.287361 9.876501 C -27.411432 9.801779 -25.543368 9.664132 -23.691035 9.467494 C -22.180852 8.393848 -20.639208 7.383127 -19.066101 6.431398 C -20.057159 8.834318 -20.745393 11.492868 -21.107207 14.332326 Z M -21.107207 14.332326 " transform="matrix(0.993258, 0, 0, -0.993258, 32.183643, 32.556004)"/>
</g>
<path fill-rule="nonzero" fill="rgb(85.499573%, 43.998718%, 83.999634%)" fill-opacity="1" d="M 11.21875 46.792969 C 11.578125 43.96875 12.261719 41.332031 13.25 38.945312 C 11.6875 39.890625 10.152344 40.894531 8.652344 41.960938 C 6.8125 42.160156 4.960938 42.296875 3.09375 42.367188 C 5.722656 44.214844 8.453125 45.703125 11.21875 46.792969 Z M 11.21875 46.792969 "/>
<g clip-path="url(#clip-5)">
<path fill="none" stroke-width="2.07053" stroke-linecap="butt" stroke-linejoin="miter" stroke="rgb(85.499573%, 43.998718%, 83.999634%)" stroke-opacity="1" stroke-miterlimit="10" d="M -21.107207 -14.333608 C -20.745393 -11.490218 -20.057159 -8.835601 -19.062169 -6.432681 C -20.635275 -7.38441 -22.180852 -8.395131 -23.691035 -9.468776 C -25.543368 -9.669348 -27.407499 -9.806994 -29.287361 -9.877784 C -26.64061 -11.737983 -23.891606 -13.236367 -21.107207 -14.333608 Z M -21.107207 -14.333608 " transform="matrix(0.993258, 0, 0, -0.993258, 32.183643, 32.556004)"/>
</g>
<g clip-path="url(#clip-6)">
<path fill="none" stroke-width="3.9851" stroke-linecap="butt" stroke-linejoin="miter" stroke="rgb(59.999084%, 19.599915%, 79.998779%)" stroke-opacity="1" stroke-miterlimit="10" d="M 4.152951 -25.172313 C 10.256605 -24.165524 15.805738 -20.964253 19.726706 -16.182009 " transform="matrix(0.993258, 0, 0, -0.993258, 32.183643, 32.556004)"/>
</g>
<path fill-rule="nonzero" fill="rgb(59.999084%, 19.599915%, 79.998779%)" fill-opacity="1" d="M 30.335938 57.828125 C 32.664062 59.679688 35.316406 61.300781 38.234375 62.652344 C 37.363281 61.003906 36.554688 59.328125 35.804688 57.636719 C 35.980469 55.804688 36.082031 53.972656 36.121094 52.148438 C 34.542969 54.199219 32.601562 56.109375 30.335938 57.828125 Z M 30.335938 57.828125 "/>
<g clip-path="url(#clip-7)">
<path fill="none" stroke-width="2.07053" stroke-linecap="butt" stroke-linejoin="miter" stroke="rgb(59.999084%, 19.599915%, 79.998779%)" stroke-opacity="1" stroke-miterlimit="10" d="M -1.860249 -25.443673 C 0.48368 -27.307805 3.154029 -28.939903 6.091805 -30.30064 C 5.214798 -28.641013 4.400716 -26.953856 3.645624 -25.250968 C 3.822599 -23.4065 3.924851 -21.562033 3.964178 -19.725431 C 2.375341 -21.790134 0.420756 -23.713256 -1.860249 -25.443673 Z M -1.860249 -25.443673 " transform="matrix(0.993258, 0, 0, -0.993258, 32.183643, 32.556004)"/>
</g>
<path fill-rule="nonzero" fill="rgb(59.999084%, 19.599915%, 79.998779%)" fill-opacity="1" d="M 54.996094 43.59375 C 52.371094 44.695312 49.746094 45.421875 47.183594 45.761719 C 48.785156 46.640625 50.421875 47.464844 52.097656 48.230469 C 53.1875 49.726562 54.230469 51.261719 55.226562 52.84375 C 55.511719 49.640625 55.433594 46.535156 54.996094 43.59375 Z M 54.996094 43.59375 "/>
<g clip-path="url(#clip-8)">
<path fill="none" stroke-width="2.07053" stroke-linecap="butt" stroke-linejoin="miter" stroke="rgb(59.999084%, 19.599915%, 79.998779%)" stroke-opacity="1" stroke-miterlimit="10" d="M 22.967306 -11.112673 C 20.324487 -12.221713 17.681668 -12.953207 15.101773 -13.295358 C 16.714207 -14.180231 18.362036 -15.010044 20.049193 -15.780866 C 21.146435 -17.287116 22.196483 -18.832693 23.199339 -20.425464 C 23.486431 -17.200595 23.407775 -14.074046 22.967306 -11.112673 Z M 22.967306 -11.112673 " transform="matrix(0.993258, 0, 0, -0.993258, 32.183643, 32.556004)"/>
</g>
</svg>
