<?xml version="1.0" encoding="UTF-8"?>
<svg xmlns="http://www.w3.org/2000/svg" xmlns:xlink="http://www.w3.org/1999/xlink" width="73.288pt" height="73.288pt" viewBox="0 0 73.288 73.288">
<defs>
<clipPath id="clip-0">
<path clip-rule="nonzero" d="M 0 0 L 72.582031 0 L 72.582031 72.582031 L 0 72.582031 Z M 0 0 "/>
</clipPath>
<clipPath id="clip-1">
<path clip-rule="nonzero" d="M 0 0 L 72.582031 0 L 72.582031 72.582031 L 0 72.582031 Z M 0 0 "/>
</clipPath>
<clipPath id="clip-2">
<path clip-rule="nonzero" d="M 12 0 L 72.582031 0 L 72.582031 71 L 12 71 Z M 12 0 "/>
</clipPath>
<clipPath id="clip-3">
<path clip-rule="nonzero" d="M 0 15 L 72.582031 15 L 72.582031 72.582031 L 0 72.582031 Z M 0 15 "/>
</clipPath>
<clipPath id="clip-4">
<path clip-rule="nonzero" d="M 0 0 L 72.582031 0 L 72.582031 55 L 0 55 Z M 0 0 "/>
</clipPath>
<clipPath id="clip-5">
<path clip-rule="nonzero" d="M 0 0 L 64 0 L 64 72.582031 L 0 72.582031 Z M 0 0 "/>
</clipPath>
<clipPath id="clip-6">
<path clip-rule="nonzero" d="M 9 0 L 72.582031 0 L 72.582031 72.582031 L 9 72.582031 Z M 9 0 "/>
</clipPath>
</defs>
<g clip-path="url(#clip-0)">
<path fill="none" stroke-width="3.9851" stroke-linecap="butt" stroke-linejoin="miter" stroke="rgb(0%, 0%, 0%)" stroke-opacity="1" stroke-miterlimit="10" d="M 4.908143 2.834321 L 19.639728 11.338015 " transform="matrix(0.990378, 0, 0, -0.990378, 36.291425, 36.291425)"/>
<path fill="none" stroke-width="3.9851" stroke-linecap="butt" stroke-linejoin="miter" stroke="rgb(0%, 0%, 0%)" stroke-opacity="1" stroke-miterlimit="10" d="M -4.90897 2.834321 L -19.640556 11.338015 " transform="matrix(0.990378, 0, 0, -0.990378, 36.291425, 36.291425)"/>
</g>
<path fill="none" stroke-width="3.9851" stroke-linecap="butt" stroke-linejoin="miter" stroke="rgb(0%, 0%, 0%)" stroke-opacity="1" stroke-miterlimit="10" d="M 0.00155845 -5.669373 L 0.00155845 -22.676762 " transform="matrix(0.990378, 0, 0, -0.990378, 36.291425, 36.291425)"/>
<g clip-path="url(#clip-1)">
<path fill="none" stroke-width="2.98883" stroke-linecap="butt" stroke-linejoin="miter" stroke="rgb(0%, 0%, 0%)" stroke-opacity="1" stroke-miterlimit="10" d="M 6.801359 -0.00155845 C 6.801359 3.757264 3.756436 6.802186 0.00155845 6.802186 C -3.757264 6.802186 -6.802186 3.757264 -6.802186 -0.00155845 C -6.802186 -3.756436 -3.757264 -6.801359 0.00155845 -6.801359 C 3.756436 -6.801359 6.801359 -3.756436 6.801359 -0.00155845 Z M 6.801359 -0.00155845 " transform="matrix(0.990378, 0, 0, -0.990378, 36.291425, 36.291425)"/>
</g>
<g clip-path="url(#clip-2)">
<path fill="none" stroke-width="2.98883" stroke-linecap="butt" stroke-linejoin="miter" stroke="rgb(0%, 0%, 0%)" stroke-opacity="1" stroke-miterlimit="10" d="M 31.354001 14.173895 C 31.354001 17.928773 28.305135 20.977639 24.550257 20.977639 C 20.791435 20.977639 17.746512 17.928773 17.746512 14.173895 C 17.746512 10.415073 20.791435 7.370151 24.550257 7.370151 C 28.305135 7.370151 31.354001 10.415073 31.354001 14.173895 Z M 31.354001 14.173895 " transform="matrix(0.990378, 0, 0, -0.990378, 36.291425, 36.291425)"/>
</g>
<path fill="none" stroke-width="2.98883" stroke-linecap="butt" stroke-linejoin="miter" stroke="rgb(0%, 0%, 0%)" stroke-opacity="1" stroke-miterlimit="10" d="M -17.74734 14.173895 C -17.74734 17.928773 -20.792262 20.977639 -24.54714 20.977639 C -28.305962 20.977639 -31.350884 17.928773 -31.350884 14.173895 C -31.350884 10.415073 -28.305962 7.370151 -24.54714 7.370151 C -20.792262 7.370151 -17.74734 10.415073 -17.74734 14.173895 Z M -17.74734 14.173895 " transform="matrix(0.990378, 0, 0, -0.990378, 36.291425, 36.291425)"/>
<g clip-path="url(#clip-3)">
<path fill="none" stroke-width="2.98883" stroke-linecap="butt" stroke-linejoin="miter" stroke="rgb(0%, 0%, 0%)" stroke-opacity="1" stroke-miterlimit="10" d="M 6.801359 -28.348521 C 6.801359 -24.589699 3.756436 -21.544777 0.00155845 -21.544777 C -3.757264 -21.544777 -6.802186 -24.589699 -6.802186 -28.348521 C -6.802186 -32.103399 -3.757264 -35.148321 0.00155845 -35.148321 C 3.756436 -35.148321 6.801359 -32.103399 6.801359 -28.348521 Z M 6.801359 -28.348521 " transform="matrix(0.990378, 0, 0, -0.990378, 36.291425, 36.291425)"/>
</g>
<g clip-path="url(#clip-4)">
<path fill="none" stroke-width="2.98883" stroke-linecap="butt" stroke-linejoin="miter" stroke="rgb(0%, 0%, 0%)" stroke-opacity="1" stroke-miterlimit="10" d="M 10.051379 23.450652 C 3.642055 26.199759 -3.642882 26.199759 -10.052206 23.450652 " transform="matrix(0.990378, 0, 0, -0.990378, 36.291425, 36.291425)"/>
</g>
<path fill-rule="nonzero" fill="rgb(0%, 0%, 0%)" fill-opacity="1" stroke-width="2.0569" stroke-linecap="butt" stroke-linejoin="round" stroke="rgb(0%, 0%, 0%)" stroke-opacity="1" stroke-miterlimit="10" d="M 14.883024 20.721266 C 13.624824 23.162726 12.035311 25.545022 10.134207 27.808993 C 10.331417 26.278643 10.461576 24.756182 10.520739 23.245554 C 9.400586 22.247671 8.339596 21.210347 7.341714 20.13358 C 9.712178 20.618717 12.244354 20.819871 14.883024 20.721266 Z M 14.883024 20.721266 " transform="matrix(0.990378, 0, 0, -0.990378, 36.291425, 36.291425)"/>
<path fill-rule="nonzero" fill="rgb(0%, 0%, 0%)" fill-opacity="1" stroke-width="2.0569" stroke-linecap="butt" stroke-linejoin="round" stroke="rgb(0%, 0%, 0%)" stroke-opacity="1" stroke-miterlimit="10" d="M -14.883851 20.721266 C -12.245181 20.819871 -9.713005 20.618717 -7.342541 20.13358 C -8.340424 21.210347 -9.401413 22.247671 -10.521566 23.24161 C -10.462403 24.756182 -10.332244 26.278643 -10.138979 27.805049 C -12.036139 25.541078 -13.625651 23.162726 -14.883851 20.721266 Z M -14.883851 20.721266 " transform="matrix(0.990378, 0, 0, -0.990378, 36.291425, 36.291425)"/>
<g clip-path="url(#clip-5)">
<path fill="none" stroke-width="2.98883" stroke-linecap="butt" stroke-linejoin="miter" stroke="rgb(0%, 0%, 0%)" stroke-opacity="1" stroke-miterlimit="10" d="M -25.33598 -3.018871 C -24.511642 -9.944886 -20.867202 -16.255605 -15.282215 -20.432512 " transform="matrix(0.990378, 0, 0, -0.990378, 36.291425, 36.291425)"/>
</g>
<path fill-rule="nonzero" fill="rgb(0%, 0%, 0%)" fill-opacity="1" stroke-width="2.0569" stroke-linecap="butt" stroke-linejoin="round" stroke="rgb(0%, 0%, 0%)" stroke-opacity="1" stroke-miterlimit="10" d="M -25.387254 2.530618 C -26.874218 0.219317 -28.136361 -2.348357 -29.150021 -5.125074 C -27.923375 -4.190298 -26.669119 -3.31863 -25.391199 -2.510069 C -23.967342 -2.983373 -22.539542 -3.381738 -21.107798 -3.709106 C -22.713087 -1.898718 -24.15272 0.195652 -25.387254 2.530618 Z M -25.387254 2.530618 " transform="matrix(0.990378, 0, 0, -0.990378, 36.291425, 36.291425)"/>
<path fill-rule="nonzero" fill="rgb(0%, 0%, 0%)" fill-opacity="1" stroke-width="2.0569" stroke-linecap="butt" stroke-linejoin="round" stroke="rgb(0%, 0%, 0%)" stroke-opacity="1" stroke-miterlimit="10" d="M -10.501845 -23.248671 C -11.90598 -21.01231 -12.998523 -18.72073 -13.763698 -16.425206 C -14.19756 -17.829341 -14.564371 -19.268973 -14.868074 -20.736216 C -16.205158 -21.438283 -17.589572 -22.089076 -19.009484 -22.68465 C -16.102609 -23.193452 -13.247008 -23.382774 -10.501845 -23.248671 Z M -10.501845 -23.248671 " transform="matrix(0.990378, 0, 0, -0.990378, 36.291425, 36.291425)"/>
<g clip-path="url(#clip-6)">
<path fill="none" stroke-width="2.98883" stroke-linecap="butt" stroke-linejoin="miter" stroke="rgb(0%, 0%, 0%)" stroke-opacity="1" stroke-miterlimit="10" d="M 15.281388 -20.432512 C 20.866374 -16.255605 24.510815 -9.944886 25.335152 -3.018871 " transform="matrix(0.990378, 0, 0, -0.990378, 36.291425, 36.291425)"/>
</g>
<path fill-rule="nonzero" fill="rgb(0%, 0%, 0%)" fill-opacity="1" stroke-width="2.0569" stroke-linecap="butt" stroke-linejoin="round" stroke="rgb(0%, 0%, 0%)" stroke-opacity="1" stroke-miterlimit="10" d="M 10.501018 -23.248671 C 13.246181 -23.382774 16.105725 -23.193452 19.012601 -22.680706 C 17.592689 -22.085132 16.208275 -21.438283 14.867247 -20.732272 C 14.567488 -19.265029 14.200677 -17.829341 13.766815 -16.425206 C 13.00164 -18.72073 11.909097 -21.01231 10.501018 -23.248671 Z M 10.501018 -23.248671 " transform="matrix(0.990378, 0, 0, -0.990378, 36.291425, 36.291425)"/>
<path fill-rule="nonzero" fill="rgb(0%, 0%, 0%)" fill-opacity="1" stroke-width="2.0569" stroke-linecap="butt" stroke-linejoin="round" stroke="rgb(0%, 0%, 0%)" stroke-opacity="1" stroke-miterlimit="10" d="M 25.386427 2.530618 C 24.151893 0.195652 22.71226 -1.898718 21.10697 -3.709106 C 22.538715 -3.381738 23.970459 -2.979429 25.390371 -2.510069 C 26.668292 -3.314686 27.922547 -4.190298 29.149193 -5.12113 C 28.139478 -2.348357 26.87339 0.219317 25.386427 2.530618 Z M 25.386427 2.530618 " transform="matrix(0.990378, 0, 0, -0.990378, 36.291425, 36.291425)"/>
</svg>
