<?xml version="1.0" encoding="UTF-8"?>
<svg xmlns="http://www.w3.org/2000/svg" xmlns:xlink="http://www.w3.org/1999/xlink" width="74.195pt" height="74.195pt" viewBox="0 0 74.195 74.195">
<defs>
<clipPath id="clip-0">
<path clip-rule="nonzero" d="M 0 0 L 73.398438 0 L 73.398438 73.398438 L 0 73.398438 Z M 0 0 "/>
</clipPath>
<clipPath id="clip-1">
<path clip-rule="nonzero" d="M 0 0 L 73.398438 0 L 73.398438 73.398438 L 0 73.398438 Z M 0 0 "/>
</clipPath>
<clipPath id="clip-2">
<path clip-rule="nonzero" d="M 1 0 L 73.398438 0 L 73.398438 62 L 1 62 Z M 1 0 "/>
</clipPath>
<clipPath id="clip-3">
<path clip-rule="nonzero" d="M 0 0 L 58 0 L 58 73.398438 L 0 73.398438 Z M 0 0 "/>
</clipPath>
<clipPath id="clip-4">
<path clip-rule="nonzero" d="M 1 11 L 73.398438 11 L 73.398438 73.398438 L 1 73.398438 Z M 1 11 "/>
</clipPath>
<clipPath id="clip-5">
<path clip-rule="nonzero" d="M 0 0 L 73.398438 0 L 73.398438 73.398438 L 0 73.398438 Z M 0 0 "/>
</clipPath>
<clipPath id="clip-6">
<path clip-rule="nonzero" d="M 0 0 L 73.398438 0 L 73.398438 73.398438 L 0 73.398438 Z M 0 0 "/>
</clipPath>
<clipPath id="clip-7">
<path clip-rule="nonzero" d="M 4 0 L 73.398438 0 L 73.398438 73.398438 L 4 73.398438 Z M 4 0 "/>
</clipPath>
</defs>
<g clip-path="url(#clip-0)">
<path fill="none" stroke-width="4.48325" stroke-linecap="butt" stroke-linejoin="miter" stroke="rgb(0%, 0%, 0%)" stroke-opacity="1" stroke-miterlimit="10" d="M 2.834515 4.907752 L 11.339869 19.640098 " transform="matrix(0.989267, 0, 0, -0.989267, 36.699815, 36.698826)"/>
</g>
<path fill="none" stroke-width="4.48325" stroke-linecap="butt" stroke-linejoin="miter" stroke="rgb(0%, 0%, 0%)" stroke-opacity="1" stroke-miterlimit="10" d="M -5.670838 -0.000397483 L -22.677596 -0.000397483 " transform="matrix(0.989267, 0, 0, -0.989267, 36.699815, 36.698826)"/>
<g clip-path="url(#clip-1)">
<path fill="none" stroke-width="4.48325" stroke-linecap="butt" stroke-linejoin="miter" stroke="rgb(0%, 0%, 0%)" stroke-opacity="1" stroke-miterlimit="10" d="M 2.834515 -4.908547 L 11.339869 -19.640893 " transform="matrix(0.989267, 0, 0, -0.989267, 36.699815, 36.698826)"/>
<path fill="none" stroke-width="2.98883" stroke-linecap="butt" stroke-linejoin="miter" stroke="rgb(0%, 0%, 0%)" stroke-opacity="1" stroke-miterlimit="10" d="M 7.256983 -0.000397483 C 7.256983 4.007464 4.007259 7.257188 -0.000602517 7.257188 C -4.008464 7.257188 -7.258188 4.007464 -7.258188 -0.000397483 C -7.258188 -4.008259 -4.008464 -7.257983 -0.000602517 -7.257983 C 4.007259 -7.257983 7.256983 -4.008259 7.256983 -0.000397483 Z M 7.256983 -0.000397483 " transform="matrix(0.989267, 0, 0, -0.989267, 36.699815, 36.698826)"/>
</g>
<g clip-path="url(#clip-2)">
<path fill="none" stroke-width="2.98883" stroke-linecap="butt" stroke-linejoin="miter" stroke="rgb(0%, 0%, 0%)" stroke-opacity="1" stroke-miterlimit="10" d="M 21.428623 24.548248 C 21.428623 28.556109 18.182848 31.805833 14.174986 31.805833 C 10.167125 31.805833 6.917401 28.556109 6.917401 24.548248 C 6.917401 20.540386 10.167125 17.290662 14.174986 17.290662 C 18.182848 17.290662 21.428623 20.540386 21.428623 24.548248 Z M 21.428623 24.548248 " transform="matrix(0.989267, 0, 0, -0.989267, 36.699815, 36.698826)"/>
</g>
<g clip-path="url(#clip-3)">
<path fill="none" stroke-width="2.98883" stroke-linecap="butt" stroke-linejoin="miter" stroke="rgb(0%, 0%, 0%)" stroke-opacity="1" stroke-miterlimit="10" d="M -21.090246 -0.000397483 C -21.090246 4.007464 -24.33997 7.257188 -28.347832 7.257188 C -32.355693 7.257188 -35.605417 4.007464 -35.605417 -0.000397483 C -35.605417 -4.008259 -32.355693 -7.257983 -28.347832 -7.257983 C -24.33997 -7.257983 -21.090246 -4.008259 -21.090246 -0.000397483 Z M -21.090246 -0.000397483 " transform="matrix(0.989267, 0, 0, -0.989267, 36.699815, 36.698826)"/>
</g>
<g clip-path="url(#clip-4)">
<path fill="none" stroke-width="2.98883" stroke-linecap="butt" stroke-linejoin="miter" stroke="rgb(0%, 0%, 0%)" stroke-opacity="1" stroke-miterlimit="10" d="M 21.428623 -24.549043 C 21.428623 -20.541181 18.182848 -17.291457 14.174986 -17.291457 C 10.167125 -17.291457 6.917401 -20.541181 6.917401 -24.549043 C 6.917401 -28.556904 10.167125 -31.806628 14.174986 -31.806628 C 18.182848 -31.806628 21.428623 -28.556904 21.428623 -24.549043 Z M 21.428623 -24.549043 " transform="matrix(0.989267, 0, 0, -0.989267, 36.699815, 36.698826)"/>
</g>
<g clip-path="url(#clip-5)">
<path fill="none" stroke-width="3.9851" stroke-linecap="butt" stroke-linejoin="miter" stroke="rgb(0%, 0%, 0%)" stroke-opacity="1" stroke-miterlimit="10" d="M -4.837677 25.049724 C -10.444734 23.967799 -15.538469 21.026068 -19.277824 16.710213 " transform="matrix(0.989267, 0, 0, -0.989267, 36.699815, 36.698826)"/>
</g>
<path fill-rule="nonzero" fill="rgb(0%, 0%, 0%)" fill-opacity="1" stroke-width="2.5172" stroke-linecap="butt" stroke-linejoin="round" stroke="rgb(0%, 0%, 0%)" stroke-opacity="1" stroke-miterlimit="10" d="M 2.30145 25.409049 C -0.616589 27.545259 -3.984772 29.318195 -7.704384 30.672576 C -6.44477 28.879897 -5.287821 27.039834 -4.229587 25.160286 C -4.505992 23.03987 -4.667886 20.923403 -4.723166 18.818783 C -2.887052 21.243243 -0.525771 23.470271 2.30145 25.409049 Z M 2.30145 25.409049 " transform="matrix(0.989267, 0, 0, -0.989267, 36.699815, 36.698826)"/>
<path fill-rule="nonzero" fill="rgb(0%, 0%, 0%)" fill-opacity="1" stroke-width="2.5172" stroke-linecap="butt" stroke-linejoin="round" stroke="rgb(0%, 0%, 0%)" stroke-opacity="1" stroke-miterlimit="10" d="M -23.15538 10.712241 C -20.063602 12.192978 -16.956028 13.120907 -13.939273 13.496027 C -15.791182 14.502928 -17.706268 15.41901 -19.676636 16.240326 C -20.778304 18.092234 -21.793102 20.015218 -22.717082 22.00138 C -23.400196 18.108029 -23.546295 14.305496 -23.15538 10.712241 Z M -23.15538 10.712241 " transform="matrix(0.989267, 0, 0, -0.989267, 36.699815, 36.698826)"/>
<g clip-path="url(#clip-6)">
<path fill="none" stroke-width="3.9851" stroke-linecap="butt" stroke-linejoin="miter" stroke="rgb(0%, 0%, 0%)" stroke-opacity="1" stroke-miterlimit="10" d="M -19.273875 -16.714957 C -15.534521 -21.026863 -10.436837 -23.968594 -4.833728 -25.050519 " transform="matrix(0.989267, 0, 0, -0.989267, 36.699815, 36.698826)"/>
</g>
<path fill-rule="nonzero" fill="rgb(0%, 0%, 0%)" fill-opacity="1" stroke-width="2.5172" stroke-linecap="butt" stroke-linejoin="round" stroke="rgb(0%, 0%, 0%)" stroke-opacity="1" stroke-miterlimit="10" d="M -23.15538 -10.713036 C -23.546295 -14.306291 -23.396247 -18.112772 -22.713134 -22.006124 C -21.785205 -20.019962 -20.774355 -18.100926 -19.672687 -16.245069 C -17.70232 -15.423754 -15.787233 -14.507671 -13.935325 -13.50077 C -16.95208 -13.12565 -20.063602 -12.189824 -23.15538 -10.713036 Z M -23.15538 -10.713036 " transform="matrix(0.989267, 0, 0, -0.989267, 36.699815, 36.698826)"/>
<path fill-rule="nonzero" fill="rgb(0%, 0%, 0%)" fill-opacity="1" stroke-width="2.5172" stroke-linecap="butt" stroke-linejoin="round" stroke="rgb(0%, 0%, 0%)" stroke-opacity="1" stroke-miterlimit="10" d="M 2.30145 -25.409844 C -0.525771 -23.471066 -2.887052 -21.244038 -4.719218 -18.819578 C -4.663937 -20.928147 -4.498094 -23.040665 -4.225639 -25.16108 C -5.279923 -27.040629 -6.436873 -28.880692 -7.692538 -30.677319 C -3.984772 -29.31899 -0.616589 -27.542106 2.30145 -25.409844 Z M 2.30145 -25.409844 " transform="matrix(0.989267, 0, 0, -0.989267, 36.699815, 36.698826)"/>
<g clip-path="url(#clip-7)">
<path fill="none" stroke-width="3.9851" stroke-linecap="butt" stroke-linejoin="miter" stroke="rgb(0%, 0%, 0%)" stroke-opacity="1" stroke-miterlimit="10" d="M 24.113693 -8.33596 C 25.977447 -2.93818 25.977447 2.945282 24.113693 8.339113 " transform="matrix(0.989267, 0, 0, -0.989267, 36.699815, 36.698826)"/>
</g>
<path fill-rule="nonzero" fill="rgb(0%, 0%, 0%)" fill-opacity="1" stroke-width="2.5172" stroke-linecap="butt" stroke-linejoin="round" stroke="rgb(0%, 0%, 0%)" stroke-opacity="1" stroke-miterlimit="10" d="M 20.856072 -14.697206 C 24.161077 -13.240161 27.38316 -11.206615 30.41571 -8.667645 C 28.232116 -8.857179 26.060369 -8.9401 23.904416 -8.916409 C 22.206504 -7.617309 20.45726 -6.420873 18.660632 -5.319205 C 19.841273 -8.118785 20.587565 -11.27769 20.856072 -14.697206 Z M 20.856072 -14.697206 " transform="matrix(0.989267, 0, 0, -0.989267, 36.699815, 36.698826)"/>
<path fill-rule="nonzero" fill="rgb(0%, 0%, 0%)" fill-opacity="1" stroke-width="2.5172" stroke-linecap="butt" stroke-linejoin="round" stroke="rgb(0%, 0%, 0%)" stroke-opacity="1" stroke-miterlimit="10" d="M 20.856072 14.696411 C 20.591513 11.280844 19.841273 8.121939 18.656684 5.326307 C 20.453311 6.424027 22.206504 7.624411 23.904416 8.923511 C 26.060369 8.947203 28.228168 8.864281 30.411761 8.674747 C 27.38316 11.209769 24.161077 13.239366 20.856072 14.696411 Z M 20.856072 14.696411 " transform="matrix(0.989267, 0, 0, -0.989267, 36.699815, 36.698826)"/>
</svg>
