<?xml version="1.0" encoding="UTF-8"?>
<svg xmlns="http://www.w3.org/2000/svg" xmlns:xlink="http://www.w3.org/1999/xlink" width="71.451pt" height="71.451pt" viewBox="0 0 71.451 71.451">
<defs>
<clipPath id="clip-0">
<path clip-rule="nonzero" d="M 0 0 L 70.90625 0 L 70.90625 70.90625 L 0 70.90625 Z M 0 0 "/>
</clipPath>
<clipPath id="clip-1">
<path clip-rule="nonzero" d="M 0 0 L 70.90625 0 L 70.90625 70.90625 L 0 70.90625 Z M 0 0 "/>
</clipPath>
<clipPath id="clip-2">
<path clip-rule="nonzero" d="M 13 0 L 70.90625 0 L 70.90625 70.90625 L 13 70.90625 Z M 13 0 "/>
</clipPath>
<clipPath id="clip-3">
<path clip-rule="nonzero" d="M 0 13 L 70.90625 13 L 70.90625 70.90625 L 0 70.90625 Z M 0 13 "/>
</clipPath>
<clipPath id="clip-4">
<path clip-rule="nonzero" d="M 0 0 L 70.90625 0 L 70.90625 58 L 0 58 Z M 0 0 "/>
</clipPath>
<clipPath id="clip-5">
<path clip-rule="nonzero" d="M 0 0 L 58 0 L 58 70.90625 L 0 70.90625 Z M 0 0 "/>
</clipPath>
<clipPath id="clip-6">
<path clip-rule="nonzero" d="M 2 2 L 70.90625 2 L 70.90625 70.90625 L 2 70.90625 Z M 2 2 "/>
</clipPath>
</defs>
<g clip-path="url(#clip-0)">
<path fill="none" stroke-width="3.9851" stroke-linecap="butt" stroke-linejoin="miter" stroke="rgb(95.999146%, 95.999146%, 95.999146%)" stroke-opacity="1" stroke-miterlimit="10" d="M 5.475875 1.468694 L 21.905841 5.869437 " transform="matrix(0.992375, 0, 0, -0.992375, 35.452597, 35.453589)"/>
<path fill="none" stroke-width="3.9851" stroke-linecap="butt" stroke-linejoin="miter" stroke="rgb(95.999146%, 95.999146%, 95.999146%)" stroke-opacity="1" stroke-miterlimit="10" d="M -4.010521 4.007585 L -16.035807 16.036807 " transform="matrix(0.992375, 0, 0, -0.992375, 35.452597, 35.453589)"/>
<path fill="none" stroke-width="3.9851" stroke-linecap="butt" stroke-linejoin="miter" stroke="rgb(95.999146%, 95.999146%, 95.999146%)" stroke-opacity="1" stroke-miterlimit="10" d="M -1.467694 -5.474875 L -5.868437 -21.904841 " transform="matrix(0.992375, 0, 0, -0.992375, 35.452597, 35.453589)"/>
</g>
<path fill-rule="nonzero" fill="rgb(86.399841%, 7.998657%, 23.498535%)" fill-opacity="1" d="M 42.203125 35.453125 C 42.203125 31.726562 39.179688 28.703125 35.453125 28.703125 C 31.722656 28.703125 28.703125 31.726562 28.703125 35.453125 C 28.703125 39.183594 31.722656 42.203125 35.453125 42.203125 C 39.179688 42.203125 42.203125 39.183594 42.203125 35.453125 Z M 42.203125 35.453125 "/>
<g clip-path="url(#clip-1)">
<path fill="none" stroke-width="2.98883" stroke-linecap="butt" stroke-linejoin="miter" stroke="rgb(95.999146%, 95.999146%, 95.999146%)" stroke-opacity="1" stroke-miterlimit="10" d="M 6.802396 0.000467817 C 6.802396 3.755664 3.755728 6.802332 0.000532183 6.802332 C -3.7586 6.802332 -6.801332 3.755664 -6.801332 0.000467817 C -6.801332 -3.758664 -3.7586 -6.801396 0.000532183 -6.801396 C 3.755728 -6.801396 6.802396 -3.758664 6.802396 0.000467817 Z M 6.802396 0.000467817 " transform="matrix(0.992375, 0, 0, -0.992375, 35.452597, 35.453589)"/>
</g>
<path fill-rule="nonzero" fill="rgb(13.198853%, 54.499817%, 13.198853%)" fill-opacity="1" d="M 69.375 28.171875 C 69.375 24.445312 66.351562 21.421875 62.625 21.421875 C 58.894531 21.421875 55.875 24.445312 55.875 28.171875 C 55.875 31.902344 58.894531 34.925781 62.625 34.925781 C 66.351562 34.925781 69.375 31.902344 69.375 28.171875 Z M 69.375 28.171875 "/>
<g clip-path="url(#clip-2)">
<path fill="none" stroke-width="2.98883" stroke-linecap="butt" stroke-linejoin="miter" stroke="rgb(95.999146%, 95.999146%, 95.999146%)" stroke-opacity="1" stroke-miterlimit="10" d="M 34.183049 7.337664 C 34.183049 11.09286 31.136381 14.139528 27.381185 14.139528 C 23.622053 14.139528 20.57932 11.09286 20.57932 7.337664 C 20.57932 3.578532 23.622053 0.531863 27.381185 0.531863 C 31.136381 0.531863 34.183049 3.578532 34.183049 7.337664 Z M 34.183049 7.337664 " transform="matrix(0.992375, 0, 0, -0.992375, 35.452597, 35.453589)"/>
</g>
<path fill-rule="nonzero" fill="rgb(11.599731%, 56.498718%, 100%)" fill-opacity="1" stroke-width="2.98883" stroke-linecap="butt" stroke-linejoin="miter" stroke="rgb(95.999146%, 95.999146%, 95.999146%)" stroke-opacity="1" stroke-miterlimit="10" d="M -13.24106 20.043924 C -13.24106 23.803056 -16.287728 26.845788 -20.042924 26.845788 C -23.802056 26.845788 -26.848725 23.803056 -26.848725 20.043924 C -26.848725 16.288728 -23.802056 13.24206 -20.042924 13.24206 C -16.287728 13.24206 -13.24106 16.288728 -13.24106 20.043924 Z M -13.24106 20.043924 " transform="matrix(0.992375, 0, 0, -0.992375, 35.452597, 35.453589)"/>
<path fill-rule="nonzero" fill="rgb(100%, 84.399414%, 0%)" fill-opacity="1" d="M 34.921875 62.625 C 34.921875 58.898438 31.902344 55.875 28.171875 55.875 C 24.441406 55.875 21.421875 58.898438 21.421875 62.625 C 21.421875 66.355469 24.441406 69.378906 28.171875 69.378906 C 31.902344 69.378906 34.921875 66.355469 34.921875 62.625 Z M 34.921875 62.625 "/>
<g clip-path="url(#clip-3)">
<path fill="none" stroke-width="2.98883" stroke-linecap="butt" stroke-linejoin="miter" stroke="rgb(95.999146%, 95.999146%, 95.999146%)" stroke-opacity="1" stroke-miterlimit="10" d="M -0.5348 -27.380185 C -0.5348 -23.624989 -3.577532 -20.57832 -7.336664 -20.57832 C -11.095796 -20.57832 -14.138528 -23.624989 -14.138528 -27.380185 C -14.138528 -31.139317 -11.095796 -34.185985 -7.336664 -34.185985 C -3.577532 -34.185985 -0.5348 -31.139317 -0.5348 -27.380185 Z M -0.5348 -27.380185 " transform="matrix(0.992375, 0, 0, -0.992375, 35.452597, 35.453589)"/>
</g>
<g clip-path="url(#clip-4)">
<path fill="none" stroke-width="2.98883" stroke-linecap="butt" stroke-linejoin="miter" stroke="rgb(95.999146%, 95.999146%, 95.999146%)" stroke-opacity="1" stroke-miterlimit="10" d="M 15.781015 20.051797 C 10.297799 24.362006 3.259759 26.247476 -3.640512 25.251601 " transform="matrix(0.992375, 0, 0, -0.992375, 35.452597, 35.453589)"/>
</g>
<path fill-rule="nonzero" fill="rgb(95.999146%, 95.999146%, 95.999146%)" fill-opacity="1" stroke-width="2.0569" stroke-linecap="butt" stroke-linejoin="round" stroke="rgb(95.999146%, 95.999146%, 95.999146%)" stroke-opacity="1" stroke-miterlimit="10" d="M 19.740896 16.162768 C 19.158329 18.8473 18.237243 21.559386 16.989448 24.236045 C 16.780826 22.708775 16.51316 21.205122 16.178577 19.729023 C 14.840248 19.055922 13.545217 18.331649 12.301357 17.548333 C 14.718223 17.402691 17.213815 16.942148 19.740896 16.162768 Z M 19.740896 16.162768 " transform="matrix(0.992375, 0, 0, -0.992375, 35.452597, 35.453589)"/>
<path fill-rule="nonzero" fill="rgb(95.999146%, 95.999146%, 95.999146%)" fill-opacity="1" stroke-width="2.0569" stroke-linecap="butt" stroke-linejoin="round" stroke="rgb(95.999146%, 95.999146%, 95.999146%)" stroke-opacity="1" stroke-miterlimit="10" d="M -9.013512 23.866037 C -6.439196 23.279533 -4.045947 22.4293 -1.881002 21.350764 C -2.565912 22.645795 -3.325611 23.92508 -4.14829 25.176812 C -3.699556 26.621421 -3.179969 28.058158 -2.597402 29.483085 C -5.014268 27.786555 -7.167405 25.901085 -9.013512 23.866037 Z M -9.013512 23.866037 " transform="matrix(0.992375, 0, 0, -0.992375, 35.452597, 35.453589)"/>
<g clip-path="url(#clip-5)">
<path fill="none" stroke-width="2.98883" stroke-linecap="butt" stroke-linejoin="miter" stroke="rgb(95.999146%, 95.999146%, 95.999146%)" stroke-opacity="1" stroke-miterlimit="10" d="M -25.254538 3.641512 C -26.250413 -3.262695 -24.364942 -10.300735 -20.050797 -15.780015 " transform="matrix(0.992375, 0, 0, -0.992375, 35.452597, 35.453589)"/>
</g>
<path fill-rule="nonzero" fill="rgb(95.999146%, 95.999146%, 95.999146%)" fill-opacity="1" stroke-width="2.0569" stroke-linecap="butt" stroke-linejoin="round" stroke="rgb(95.999146%, 95.999146%, 95.999146%)" stroke-opacity="1" stroke-miterlimit="10" d="M -23.865037 9.014512 C -25.900085 7.164468 -27.789492 5.011332 -29.482085 2.594466 C -28.057158 3.177033 -26.620421 3.69662 -25.175812 4.14929 C -23.92408 3.322675 -22.648731 2.566912 -21.349764 1.878066 C -22.432236 4.046947 -23.278533 6.440196 -23.865037 9.014512 Z M -23.865037 9.014512 " transform="matrix(0.992375, 0, 0, -0.992375, 35.452597, 35.453589)"/>
<path fill-rule="nonzero" fill="rgb(95.999146%, 95.999146%, 95.999146%)" fill-opacity="1" stroke-width="2.0569" stroke-linecap="butt" stroke-linejoin="round" stroke="rgb(95.999146%, 95.999146%, 95.999146%)" stroke-opacity="1" stroke-miterlimit="10" d="M -16.161768 -19.739896 C -16.941148 -17.216751 -17.401691 -14.72116 -17.547333 -12.304293 C -18.330649 -13.548153 -19.054922 -14.839248 -19.728023 -16.181514 C -21.204122 -16.51216 -22.707775 -16.783762 -24.235045 -16.992384 C -21.558386 -18.236243 -18.8463 -19.157329 -16.161768 -19.739896 Z M -16.161768 -19.739896 " transform="matrix(0.992375, 0, 0, -0.992375, 35.452597, 35.453589)"/>
<g clip-path="url(#clip-6)">
<path fill="none" stroke-width="2.98883" stroke-linecap="butt" stroke-linejoin="miter" stroke="rgb(95.999146%, 95.999146%, 95.999146%)" stroke-opacity="1" stroke-miterlimit="10" d="M 9.47512 -23.691905 C 15.950274 -21.101844 21.102844 -15.949274 23.688969 -9.47412 " transform="matrix(0.992375, 0, 0, -0.992375, 35.452597, 35.453589)"/>
</g>
<path fill-rule="nonzero" fill="rgb(95.999146%, 95.999146%, 95.999146%)" fill-opacity="1" stroke-width="2.0569" stroke-linecap="butt" stroke-linejoin="round" stroke="rgb(95.999146%, 95.999146%, 95.999146%)" stroke-opacity="1" stroke-miterlimit="10" d="M 4.125737 -25.175877 C 6.743352 -26.014301 9.553845 -26.573251 12.494234 -26.829108 C 11.273992 -25.888341 10.108858 -24.904275 8.994895 -23.87691 C 9.08543 -22.381129 9.101175 -20.897158 9.046067 -19.428931 C 7.711673 -21.448235 6.062379 -23.38094 4.125737 -25.175877 Z M 4.125737 -25.175877 " transform="matrix(0.992375, 0, 0, -0.992375, 35.452597, 35.453589)"/>
<path fill-rule="nonzero" fill="rgb(95.999146%, 95.999146%, 95.999146%)" fill-opacity="1" stroke-width="2.0569" stroke-linecap="butt" stroke-linejoin="round" stroke="rgb(95.999146%, 95.999146%, 95.999146%)" stroke-opacity="1" stroke-miterlimit="10" d="M 25.176877 -4.128673 C 23.378004 -6.061379 21.449235 -7.710673 19.429931 -9.045067 C 20.898158 -9.100175 22.382129 -9.08443 23.87791 -8.993895 C 24.901338 -10.107858 25.889341 -11.272992 26.834044 -12.493234 C 26.570314 -9.552845 26.015301 -6.746289 25.176877 -4.128673 Z M 25.176877 -4.128673 " transform="matrix(0.992375, 0, 0, -0.992375, 35.452597, 35.453589)"/>
</svg>
