<?xml version="1.0" encoding="UTF-8"?>
<svg xmlns="http://www.w3.org/2000/svg" xmlns:xlink="http://www.w3.org/1999/xlink" width="72.28pt" height="72.28pt" viewBox="0 0 72.28 72.28">
<defs>
<clipPath id="clip-0">
<path clip-rule="nonzero" d="M 0 0 L 71.566406 0 L 71.566406 71.566406 L 0 71.566406 Z M 0 0 "/>
</clipPath>
<clipPath id="clip-1">
<path clip-rule="nonzero" d="M 0 0 L 71.566406 0 L 71.566406 71.566406 L 0 71.566406 Z M 0 0 "/>
</clipPath>
<clipPath id="clip-2">
<path clip-rule="nonzero" d="M 13 0 L 71.566406 0 L 71.566406 71.566406 L 13 71.566406 Z M 13 0 "/>
</clipPath>
<clipPath id="clip-3">
<path clip-rule="nonzero" d="M 0 13 L 71.566406 13 L 71.566406 71.566406 L 0 71.566406 Z M 0 13 "/>
</clipPath>
<clipPath id="clip-4">
<path clip-rule="nonzero" d="M 0 0 L 71.566406 0 L 71.566406 71 L 0 71 Z M 0 0 "/>
</clipPath>
<clipPath id="clip-5">
<path clip-rule="nonzero" d="M 0 0 L 71 0 L 71 71.566406 L 0 71.566406 Z M 0 0 "/>
</clipPath>
<clipPath id="clip-6">
<path clip-rule="nonzero" d="M 0 0 L 71.566406 0 L 71.566406 71.566406 L 0 71.566406 Z M 0 0 "/>
</clipPath>
</defs>
<g clip-path="url(#clip-0)">
<path fill="none" stroke-width="4.48325" stroke-linecap="butt" stroke-linejoin="miter" stroke="rgb(95.999146%, 95.999146%, 95.999146%)" stroke-opacity="1" stroke-miterlimit="10" d="M 5.477505 1.465978 L 21.905156 5.868778 " transform="matrix(0.990137, 0, 0, -0.990137, 35.783551, 35.783551)"/>
<path fill="none" stroke-width="4.48325" stroke-linecap="butt" stroke-linejoin="miter" stroke="rgb(95.999146%, 95.999146%, 95.999146%)" stroke-opacity="1" stroke-miterlimit="10" d="M -4.010607 4.010607 L -16.035459 16.035459 " transform="matrix(0.990137, 0, 0, -0.990137, 35.783551, 35.783551)"/>
<path fill="none" stroke-width="4.48325" stroke-linecap="butt" stroke-linejoin="miter" stroke="rgb(95.999146%, 95.999146%, 95.999146%)" stroke-opacity="1" stroke-miterlimit="10" d="M -1.465978 -5.477505 L -5.868778 -21.905156 " transform="matrix(0.990137, 0, 0, -0.990137, 35.783551, 35.783551)"/>
</g>
<path fill-rule="nonzero" fill="rgb(86.399841%, 7.998657%, 23.498535%)" fill-opacity="1" d="M 42.96875 35.785156 C 42.96875 31.816406 39.75 28.597656 35.785156 28.597656 C 31.816406 28.597656 28.597656 31.816406 28.597656 35.785156 C 28.597656 39.75 31.816406 42.96875 35.785156 42.96875 C 39.75 42.96875 42.96875 39.75 42.96875 35.785156 Z M 42.96875 35.785156 "/>
<g clip-path="url(#clip-1)">
<path fill="none" stroke-width="2.98883" stroke-linecap="butt" stroke-linejoin="miter" stroke="rgb(95.999146%, 95.999146%, 95.999146%)" stroke-opacity="1" stroke-miterlimit="10" d="M 7.256773 -0.00162156 C 7.256773 4.006662 4.00596 7.257475 0.00162156 7.257475 C -4.006662 7.257475 -7.257475 4.006662 -7.257475 -0.00162156 C -7.257475 -4.00596 -4.006662 -7.256773 0.00162156 -7.256773 C 4.00596 -7.256773 7.256773 -4.00596 7.256773 -0.00162156 Z M 7.256773 -0.00162156 " transform="matrix(0.990137, 0, 0, -0.990137, 35.783551, 35.783551)"/>
</g>
<path fill-rule="nonzero" fill="rgb(13.198853%, 54.499817%, 13.198853%)" fill-opacity="1" d="M 70.078125 28.519531 C 70.078125 24.550781 66.863281 21.335938 62.894531 21.335938 C 58.925781 21.335938 55.710938 24.550781 55.710938 28.519531 C 55.710938 32.488281 58.925781 35.703125 62.894531 35.703125 C 66.863281 35.703125 70.078125 32.488281 70.078125 28.519531 Z M 70.078125 28.519531 "/>
<g clip-path="url(#clip-2)">
<path fill="none" stroke-width="2.98883" stroke-linecap="butt" stroke-linejoin="miter" stroke="rgb(95.999146%, 95.999146%, 95.999146%)" stroke-opacity="1" stroke-miterlimit="10" d="M 34.636192 7.336378 C 34.636192 11.344662 31.389324 14.59153 27.38104 14.59153 C 23.372756 14.59153 20.125889 11.344662 20.125889 7.336378 C 20.125889 3.328094 23.372756 0.0812268 27.38104 0.0812268 C 31.389324 0.0812268 34.636192 3.328094 34.636192 7.336378 Z M 34.636192 7.336378 " transform="matrix(0.990137, 0, 0, -0.990137, 35.783551, 35.783551)"/>
</g>
<path fill-rule="nonzero" fill="rgb(11.599731%, 56.498718%, 100%)" fill-opacity="1" stroke-width="2.98883" stroke-linecap="butt" stroke-linejoin="miter" stroke="rgb(95.999146%, 95.999146%, 95.999146%)" stroke-opacity="1" stroke-miterlimit="10" d="M -12.788591 20.043742 C -12.788591 24.052026 -16.035459 27.302839 -20.043742 27.302839 C -24.052026 27.302839 -27.302839 24.052026 -27.302839 20.043742 C -27.302839 16.035459 -24.052026 12.788591 -20.043742 12.788591 C -16.035459 12.788591 -12.788591 16.035459 -12.788591 20.043742 Z M -12.788591 20.043742 " transform="matrix(0.990137, 0, 0, -0.990137, 35.783551, 35.783551)"/>
<path fill-rule="nonzero" fill="rgb(100%, 84.399414%, 0%)" fill-opacity="1" d="M 35.703125 62.894531 C 35.703125 58.925781 32.488281 55.710938 28.519531 55.710938 C 24.550781 55.710938 21.335938 58.925781 21.335938 62.894531 C 21.335938 66.863281 24.550781 70.078125 28.519531 70.078125 C 32.488281 70.078125 35.703125 66.863281 35.703125 62.894531 Z M 35.703125 62.894531 "/>
<g clip-path="url(#clip-3)">
<path fill="none" stroke-width="2.98883" stroke-linecap="butt" stroke-linejoin="miter" stroke="rgb(95.999146%, 95.999146%, 95.999146%)" stroke-opacity="1" stroke-miterlimit="10" d="M -0.0812268 -27.38104 C -0.0812268 -23.372756 -3.328094 -20.125889 -7.336378 -20.125889 C -11.344662 -20.125889 -14.59153 -23.372756 -14.59153 -27.38104 C -14.59153 -31.389324 -11.344662 -34.636192 -7.336378 -34.636192 C -3.328094 -34.636192 -0.0812268 -31.389324 -0.0812268 -27.38104 Z M -0.0812268 -27.38104 " transform="matrix(0.990137, 0, 0, -0.990137, 35.783551, 35.783551)"/>
</g>
<g clip-path="url(#clip-4)">
<path fill="none" stroke-width="3.9851" stroke-linecap="butt" stroke-linejoin="miter" stroke="rgb(95.999146%, 95.999146%, 95.999146%)" stroke-opacity="1" stroke-miterlimit="10" d="M 14.290995 21.136552 C 9.564692 24.332133 3.879715 25.854965 -1.817098 25.448613 " transform="matrix(0.990137, 0, 0, -0.990137, 35.783551, 35.783551)"/>
</g>
<path fill-rule="nonzero" fill="rgb(95.999146%, 95.999146%, 95.999146%)" fill-opacity="1" stroke-width="2.5172" stroke-linecap="butt" stroke-linejoin="round" stroke="rgb(95.999146%, 95.999146%, 95.999146%)" stroke-opacity="1" stroke-miterlimit="10" d="M 19.593292 16.339236 C 19.040969 19.913552 17.912653 23.550991 16.24385 27.137142 C 15.861169 24.979139 15.37986 22.860587 14.799921 20.785433 C 13.107447 19.479584 11.493876 18.098778 9.967099 16.646959 C 12.981202 17.065146 16.224124 16.966517 19.593292 16.339236 Z M 19.593292 16.339236 " transform="matrix(0.990137, 0, 0, -0.990137, 35.783551, 35.783551)"/>
<path fill-rule="nonzero" fill="rgb(95.999146%, 95.999146%, 95.999146%)" fill-opacity="1" stroke-width="2.5172" stroke-linecap="butt" stroke-linejoin="round" stroke="rgb(95.999146%, 95.999146%, 95.999146%)" stroke-opacity="1" stroke-miterlimit="10" d="M -8.796088 23.945507 C -5.565001 22.8093 -2.708704 21.266742 -0.313991 19.400681 C -0.913656 21.420604 -1.615895 23.4208 -2.432543 25.397326 C -1.896001 27.484316 -1.256885 29.563416 -0.507304 31.62279 C -3.738391 29.350378 -6.531565 26.766297 -8.796088 23.945507 Z M -8.796088 23.945507 " transform="matrix(0.990137, 0, 0, -0.990137, 35.783551, 35.783551)"/>
<g clip-path="url(#clip-5)">
<path fill="none" stroke-width="3.9851" stroke-linecap="butt" stroke-linejoin="miter" stroke="rgb(95.999146%, 95.999146%, 95.999146%)" stroke-opacity="1" stroke-miterlimit="10" d="M -25.448613 1.809207 C -25.854965 -3.88366 -24.332133 -9.568637 -21.132607 -14.298886 " transform="matrix(0.990137, 0, 0, -0.990137, 35.783551, 35.783551)"/>
</g>
<path fill-rule="nonzero" fill="rgb(95.999146%, 95.999146%, 95.999146%)" fill-opacity="1" stroke-width="2.5172" stroke-linecap="butt" stroke-linejoin="round" stroke="rgb(95.999146%, 95.999146%, 95.999146%)" stroke-opacity="1" stroke-miterlimit="10" d="M -23.945507 8.796088 C -26.766297 6.535511 -29.350378 3.738391 -31.62279 0.499414 C -29.563416 1.248995 -27.488262 1.892056 -25.397326 2.424653 C -23.4208 1.611949 -21.420604 0.905766 -19.400681 0.310046 C -21.266742 2.708704 -22.805355 5.565001 -23.945507 8.796088 Z M -23.945507 8.796088 " transform="matrix(0.990137, 0, 0, -0.990137, 35.783551, 35.783551)"/>
<path fill-rule="nonzero" fill="rgb(95.999146%, 95.999146%, 95.999146%)" fill-opacity="1" stroke-width="2.5172" stroke-linecap="butt" stroke-linejoin="round" stroke="rgb(95.999146%, 95.999146%, 95.999146%)" stroke-opacity="1" stroke-miterlimit="10" d="M -16.339236 -19.593292 C -16.970462 -16.224124 -17.065146 -12.981202 -16.643013 -9.971044 C -18.094833 -11.501766 -19.475639 -13.111392 -20.781488 -14.803866 C -22.856642 -15.38775 -24.975194 -15.86906 -27.133197 -16.25174 C -23.550991 -17.916598 -19.913552 -19.040969 -16.339236 -19.593292 Z M -16.339236 -19.593292 " transform="matrix(0.990137, 0, 0, -0.990137, 35.783551, 35.783551)"/>
<g clip-path="url(#clip-6)">
<path fill="none" stroke-width="3.9851" stroke-linecap="butt" stroke-linejoin="miter" stroke="rgb(95.999146%, 95.999146%, 95.999146%)" stroke-opacity="1" stroke-miterlimit="10" d="M 11.158537 -22.946679 C 16.291192 -20.449392 20.453337 -16.287247 22.946679 -11.154592 " transform="matrix(0.990137, 0, 0, -0.990137, 35.783551, 35.783551)"/>
</g>
<path fill-rule="nonzero" fill="rgb(95.999146%, 95.999146%, 95.999146%)" fill-opacity="1" stroke-width="2.5172" stroke-linecap="butt" stroke-linejoin="round" stroke="rgb(95.999146%, 95.999146%, 95.999146%)" stroke-opacity="1" stroke-miterlimit="10" d="M 4.353134 -25.136243 C 7.722302 -26.446037 11.438644 -27.290301 15.37986 -27.63353 C 13.699221 -26.225108 12.105376 -24.749618 10.598324 -23.20706 C 10.314273 -21.088508 9.923702 -19.005463 9.430557 -16.953979 C 8.290405 -19.774769 6.58215 -22.536382 4.353134 -25.136243 Z M 4.353134 -25.136243 " transform="matrix(0.990137, 0, 0, -0.990137, 35.783551, 35.783551)"/>
<path fill-rule="nonzero" fill="rgb(95.999146%, 95.999146%, 95.999146%)" fill-opacity="1" stroke-width="2.5172" stroke-linecap="butt" stroke-linejoin="round" stroke="rgb(95.999146%, 95.999146%, 95.999146%)" stroke-opacity="1" stroke-miterlimit="10" d="M 25.136243 -4.353134 C 22.536382 -6.58215 19.774769 -8.28646 16.957924 -9.426612 C 19.005463 -9.919757 21.092453 -10.310328 23.211005 -10.594379 C 24.753563 -12.101431 26.229053 -13.695276 27.637476 -15.37197 C 27.290301 -11.438644 26.446037 -7.726247 25.136243 -4.353134 Z M 25.136243 -4.353134 " transform="matrix(0.990137, 0, 0, -0.990137, 35.783551, 35.783551)"/>
</svg>
