<?xml version="1.0" encoding="UTF-8"?>
<svg xmlns="http://www.w3.org/2000/svg" xmlns:xlink="http://www.w3.org/1999/xlink" width="74.195pt" height="74.195pt" viewBox="0 0 74.195 74.195">
<defs>
<clipPath id="clip-0">
<path clip-rule="nonzero" d="M 0 0 L 73.398438 0 L 73.398438 73.398438 L 0 73.398438 Z M 0 0 "/>
</clipPath>
<clipPath id="clip-1">
<path clip-rule="nonzero" d="M 0 0 L 73.398438 0 L 73.398438 73.398438 L 0 73.398438 Z M 0 0 "/>
</clipPath>
<clipPath id="clip-2">
<path clip-rule="nonzero" d="M 11 0 L 73.398438 0 L 73.398438 72 L 11 72 Z M 11 0 "/>
</clipPath>
<clipPath id="clip-3">
<path clip-rule="nonzero" d="M 0 15 L 73.398438 15 L 73.398438 73.398438 L 0 73.398438 Z M 0 15 "/>
</clipPath>
<clipPath id="clip-4">
<path clip-rule="nonzero" d="M 0 0 L 73.398438 0 L 73.398438 69 L 0 69 Z M 0 0 "/>
</clipPath>
<clipPath id="clip-5">
<path clip-rule="nonzero" d="M 0 0 L 73.398438 0 L 73.398438 73.398438 L 0 73.398438 Z M 0 0 "/>
</clipPath>
<clipPath id="clip-6">
<path clip-rule="nonzero" d="M 0 0 L 73.398438 0 L 73.398438 73.398438 L 0 73.398438 Z M 0 0 "/>
</clipPath>
</defs>
<g clip-path="url(#clip-0)">
<path fill="none" stroke-width="4.48325" stroke-linecap="butt" stroke-linejoin="miter" stroke="rgb(0%, 0%, 0%)" stroke-opacity="1" stroke-miterlimit="10" d="M 4.911496 2.83472 L 19.639893 11.340074 " transform="matrix(0.989267, 0, 0, -0.989267, 36.699815, 36.698826)"/>
<path fill="none" stroke-width="4.48325" stroke-linecap="butt" stroke-linejoin="miter" stroke="rgb(0%, 0%, 0%)" stroke-opacity="1" stroke-miterlimit="10" d="M -4.908752 2.83472 L -19.641098 11.340074 " transform="matrix(0.989267, 0, 0, -0.989267, 36.699815, 36.698826)"/>
</g>
<path fill="none" stroke-width="4.48325" stroke-linecap="butt" stroke-linejoin="miter" stroke="rgb(0%, 0%, 0%)" stroke-opacity="1" stroke-miterlimit="10" d="M -0.000602517 -5.670633 L -0.000602517 -22.677391 " transform="matrix(0.989267, 0, 0, -0.989267, 36.699815, 36.698826)"/>
<path fill-rule="nonzero" fill="rgb(86.399841%, 7.998657%, 23.498535%)" fill-opacity="1" d="M 43.878906 36.699219 C 43.878906 32.734375 40.664062 29.519531 36.699219 29.519531 C 32.734375 29.519531 29.519531 32.734375 29.519531 36.699219 C 29.519531 40.664062 32.734375 43.878906 36.699219 43.878906 C 40.664062 43.878906 43.878906 40.664062 43.878906 36.699219 Z M 43.878906 36.699219 "/>
<g clip-path="url(#clip-1)">
<path fill="none" stroke-width="2.98883" stroke-linecap="butt" stroke-linejoin="miter" stroke="rgb(0%, 0%, 0%)" stroke-opacity="1" stroke-miterlimit="10" d="M 7.256983 -0.000397483 C 7.256983 4.007464 4.007259 7.257188 -0.000602517 7.257188 C -4.008464 7.257188 -7.258188 4.007464 -7.258188 -0.000397483 C -7.258188 -4.008259 -4.008464 -7.257983 -0.000602517 -7.257983 C 4.007259 -7.257983 7.256983 -4.008259 7.256983 -0.000397483 Z M 7.256983 -0.000397483 " transform="matrix(0.989267, 0, 0, -0.989267, 36.699815, 36.698826)"/>
</g>
<path fill-rule="nonzero" fill="rgb(50%, 50%, 50%)" fill-opacity="1" d="M 68.164062 22.675781 C 68.164062 18.710938 64.949219 15.5 60.984375 15.5 C 57.019531 15.5 53.804688 18.710938 53.804688 22.675781 C 53.804688 26.640625 57.019531 29.855469 60.984375 29.855469 C 64.949219 29.855469 68.164062 26.640625 68.164062 22.675781 Z M 68.164062 22.675781 "/>
<g clip-path="url(#clip-2)">
<path fill="none" stroke-width="2.98883" stroke-linecap="butt" stroke-linejoin="miter" stroke="rgb(0%, 0%, 0%)" stroke-opacity="1" stroke-miterlimit="10" d="M 31.805628 14.175191 C 31.805628 18.183053 28.555904 21.428828 24.548043 21.428828 C 20.540181 21.428828 17.290457 18.183053 17.290457 14.175191 C 17.290457 10.16733 20.540181 6.917606 24.548043 6.917606 C 28.555904 6.917606 31.805628 10.16733 31.805628 14.175191 Z M 31.805628 14.175191 " transform="matrix(0.989267, 0, 0, -0.989267, 36.699815, 36.698826)"/>
</g>
<path fill-rule="nonzero" fill="rgb(66.398621%, 66.398621%, 66.398621%)" fill-opacity="1" stroke-width="2.98883" stroke-linecap="butt" stroke-linejoin="miter" stroke="rgb(0%, 0%, 0%)" stroke-opacity="1" stroke-miterlimit="10" d="M -17.291662 14.175191 C -17.291662 18.183053 -20.541386 21.428828 -24.549248 21.428828 C -28.557109 21.428828 -31.806833 18.183053 -31.806833 14.175191 C -31.806833 10.16733 -28.557109 6.917606 -24.549248 6.917606 C -20.541386 6.917606 -17.291662 10.16733 -17.291662 14.175191 Z M -17.291662 14.175191 " transform="matrix(0.989267, 0, 0, -0.989267, 36.699815, 36.698826)"/>
<path fill-rule="nonzero" fill="rgb(82.798767%, 82.798767%, 82.798767%)" fill-opacity="1" d="M 43.878906 64.742188 C 43.878906 60.777344 40.664062 57.5625 36.699219 57.5625 C 32.734375 57.5625 29.519531 60.777344 29.519531 64.742188 C 29.519531 68.707031 32.734375 71.921875 36.699219 71.921875 C 40.664062 71.921875 43.878906 68.707031 43.878906 64.742188 Z M 43.878906 64.742188 "/>
<g clip-path="url(#clip-3)">
<path fill="none" stroke-width="2.98883" stroke-linecap="butt" stroke-linejoin="miter" stroke="rgb(0%, 0%, 0%)" stroke-opacity="1" stroke-miterlimit="10" d="M 7.256983 -28.347626 C 7.256983 -24.339765 4.007259 -21.090041 -0.000602517 -21.090041 C -4.008464 -21.090041 -7.258188 -24.339765 -7.258188 -28.347626 C -7.258188 -32.355488 -4.008464 -35.605212 -0.000602517 -35.605212 C 4.007259 -35.605212 7.256983 -32.355488 7.256983 -28.347626 Z M 7.256983 -28.347626 " transform="matrix(0.989267, 0, 0, -0.989267, 36.699815, 36.698826)"/>
</g>
<g clip-path="url(#clip-4)">
<path fill="none" stroke-width="3.9851" stroke-linecap="butt" stroke-linejoin="miter" stroke="rgb(0%, 0%, 0%)" stroke-opacity="1" stroke-miterlimit="10" d="M 8.33496 24.113898 C 2.941128 25.977652 -2.946282 25.977652 -8.340113 24.113898 " transform="matrix(0.989267, 0, 0, -0.989267, 36.699815, 36.698826)"/>
</g>
<path fill-rule="nonzero" fill="rgb(0%, 0%, 0%)" fill-opacity="1" stroke-width="2.5172" stroke-linecap="butt" stroke-linejoin="round" stroke="rgb(0%, 0%, 0%)" stroke-opacity="1" stroke-miterlimit="10" d="M 14.696206 20.856277 C 13.239161 24.161282 11.205615 27.383365 8.666645 30.415915 C 8.856179 28.232321 8.9391 26.060574 8.915409 23.904621 C 7.620257 22.206709 6.419873 20.457465 5.318205 18.656889 C 8.121733 19.841478 11.280639 20.58777 14.696206 20.856277 Z M 14.696206 20.856277 " transform="matrix(0.989267, 0, 0, -0.989267, 36.699815, 36.698826)"/>
<path fill-rule="nonzero" fill="rgb(0%, 0%, 0%)" fill-opacity="1" stroke-width="2.5172" stroke-linecap="butt" stroke-linejoin="round" stroke="rgb(0%, 0%, 0%)" stroke-opacity="1" stroke-miterlimit="10" d="M -14.697411 20.856277 C -11.277895 20.58777 -8.122939 19.841478 -5.323358 18.656889 C -6.425027 20.453516 -7.625411 22.20276 -8.920562 23.904621 C -8.948203 26.056625 -8.865281 28.228373 -8.675747 30.411966 C -11.210769 27.383365 -13.236417 24.161282 -14.697411 20.856277 Z M -14.697411 20.856277 " transform="matrix(0.989267, 0, 0, -0.989267, 36.699815, 36.698826)"/>
<g clip-path="url(#clip-5)">
<path fill="none" stroke-width="3.9851" stroke-linecap="butt" stroke-linejoin="miter" stroke="rgb(0%, 0%, 0%)" stroke-opacity="1" stroke-miterlimit="10" d="M -25.050724 -4.84142 C -23.968799 -10.444529 -21.023119 -15.538264 -16.711213 -19.277619 " transform="matrix(0.989267, 0, 0, -0.989267, 36.699815, 36.698826)"/>
</g>
<path fill-rule="nonzero" fill="rgb(0%, 0%, 0%)" fill-opacity="1" stroke-width="2.5172" stroke-linecap="butt" stroke-linejoin="round" stroke="rgb(0%, 0%, 0%)" stroke-opacity="1" stroke-miterlimit="10" d="M -25.410049 2.301655 C -27.542311 -0.616384 -29.319195 -3.988516 -30.673576 -7.704178 C -28.876948 -6.444565 -27.040834 -5.287616 -25.161286 -4.229382 C -23.04087 -4.505787 -20.924403 -4.66768 -18.819783 -4.722961 C -21.244243 -2.890796 -23.471271 -0.525566 -25.410049 2.301655 Z M -25.410049 2.301655 " transform="matrix(0.989267, 0, 0, -0.989267, 36.699815, 36.698826)"/>
<path fill-rule="nonzero" fill="rgb(0%, 0%, 0%)" fill-opacity="1" stroke-width="2.5172" stroke-linecap="butt" stroke-linejoin="round" stroke="rgb(0%, 0%, 0%)" stroke-opacity="1" stroke-miterlimit="10" d="M -10.713241 -23.155175 C -12.190029 -20.063397 -13.121907 -16.955823 -13.497027 -13.939068 C -14.499979 -15.790977 -15.416062 -17.706063 -16.241326 -19.676431 C -18.093234 -20.778099 -20.016218 -21.792897 -22.00238 -22.716877 C -18.109029 -23.399991 -14.306496 -23.54609 -10.713241 -23.155175 Z M -10.713241 -23.155175 " transform="matrix(0.989267, 0, 0, -0.989267, 36.699815, 36.698826)"/>
<g clip-path="url(#clip-6)">
<path fill="none" stroke-width="3.9851" stroke-linecap="butt" stroke-linejoin="miter" stroke="rgb(0%, 0%, 0%)" stroke-opacity="1" stroke-miterlimit="10" d="M 16.717905 -19.27367 C 21.029811 -15.534316 23.971542 -10.436632 25.053467 -4.833523 " transform="matrix(0.989267, 0, 0, -0.989267, 36.699815, 36.698826)"/>
</g>
<path fill-rule="nonzero" fill="rgb(0%, 0%, 0%)" fill-opacity="1" stroke-width="2.5172" stroke-linecap="butt" stroke-linejoin="round" stroke="rgb(0%, 0%, 0%)" stroke-opacity="1" stroke-miterlimit="10" d="M 10.712036 -23.155175 C 14.305291 -23.54609 18.111772 -23.396042 22.009072 -22.712929 C 20.02291 -21.785 18.099926 -20.77415 16.244069 -19.676431 C 15.422754 -17.702115 14.506671 -15.787028 13.49977 -13.93512 C 13.12465 -16.951875 12.192773 -20.063397 10.712036 -23.155175 Z M 10.712036 -23.155175 " transform="matrix(0.989267, 0, 0, -0.989267, 36.699815, 36.698826)"/>
<path fill-rule="nonzero" fill="rgb(0%, 0%, 0%)" fill-opacity="1" stroke-width="2.5172" stroke-linecap="butt" stroke-linejoin="round" stroke="rgb(0%, 0%, 0%)" stroke-opacity="1" stroke-miterlimit="10" d="M 25.408844 2.301655 C 23.470066 -0.525566 21.243038 -2.886847 18.818578 -4.719013 C 20.927147 -4.663732 23.043614 -4.497889 25.164029 -4.225434 C 27.039629 -5.279718 28.879692 -6.436668 30.676319 -7.692333 C 29.31799 -3.984567 27.545054 -0.616384 25.408844 2.301655 Z M 25.408844 2.301655 " transform="matrix(0.989267, 0, 0, -0.989267, 36.699815, 36.698826)"/>
</svg>
